<svg width="10" height="11" viewBox="0 0 10 11" fill="none" xmlns="http://www.w3.org/2000/svg">
<path d="M5.94727 0.96875C5.94727 0.714844 6.14258 0.5 6.41602 0.5H9.52148C9.79492 0.5 9.99023 0.714844 9.99023 0.96875V4.09375C9.99023 4.36719 9.79492 4.5625 9.52148 4.5625C9.26758 4.5625 9.05273 4.36719 9.05273 4.09375V2.10156L4.69727 6.45703C4.52148 6.65234 4.22852 6.65234 4.05273 6.45703C3.85742 6.28125 3.85742 5.98828 4.05273 5.79297L8.4082 1.4375H6.41602C6.14258 1.4375 5.94727 1.24219 5.94727 0.96875ZM1.41602 1.125H3.91602C4.16992 1.125 4.38477 1.33984 4.38477 1.59375C4.38477 1.86719 4.16992 2.0625 3.91602 2.0625H1.41602C1.14258 2.0625 0.947266 2.27734 0.947266 2.53125V9.09375C0.947266 9.36719 1.14258 9.5625 1.41602 9.5625H7.97852C8.23242 9.5625 8.44727 9.36719 8.44727 9.09375V6.59375C8.44727 6.33984 8.64258 6.125 8.91602 6.125C9.16992 6.125 9.38477 6.33984 9.38477 6.59375V9.09375C9.38477 9.875 8.74023 10.5 7.97852 10.5H1.41602C0.634766 10.5 0.00976562 9.875 0.00976562 9.09375V2.53125C0.00976562 1.76953 0.634766 1.125 1.41602 1.125Z" fill="black"/>
</svg>
