<svg width="413" height="331" viewBox="0 0 413 331" fill="none" xmlns="http://www.w3.org/2000/svg">
<path fill-rule="evenodd" clip-rule="evenodd" d="M0 206.66C0 92.5423 92.4561 0.0326604 206.508 0.0326604L206.492 0C320.544 0 413 92.5096 413 206.628C413 232.858 408.07 257.929 399.158 281.008L273.043 154.82L205.725 222.177L139.941 156.355L14.2667 282.118C5.09292 258.746 0 233.299 0 206.66ZM206.688 158.413C208.353 127.315 233.213 102.44 264.293 100.774V100.447C233.213 98.7815 208.353 73.9065 206.688 42.8086H206.361C204.696 73.9065 179.836 98.7815 148.756 100.447V100.774C179.836 102.44 204.696 127.315 206.361 158.413H206.688ZM344.148 360.663L236.299 252.752H236.315L273.075 215.97L378.329 321.285C368.617 335.821 357.125 349.051 344.148 360.663ZM103.442 385.669C119.341 394.848 136.546 402.018 154.746 406.722L205.806 355.633L257.127 407C275.377 402.394 292.631 395.338 308.595 386.225L205.741 283.311L103.442 385.669ZM35.2913 322.199L139.957 217.489L175.2 252.752L68.0688 359.945C55.6793 348.74 44.661 336.082 35.2913 322.199Z" fill="white"/>
</svg>
