<svg width="61" height="60" viewBox="0 0 61 60" fill="none" xmlns="http://www.w3.org/2000/svg">
<path fill-rule="evenodd" clip-rule="evenodd" d="M0 30.4659C0 13.6426 13.6378 0.00481479 30.4611 0.00481479L30.4587 0C47.282 0 60.9198 13.6378 60.9198 30.4611C60.9198 34.328 60.1926 38.024 58.878 41.4262L40.2753 22.8235L30.3455 32.7533L20.6421 23.0499L2.10442 41.59C0.751233 38.1444 0 34.393 0 30.4659ZM30.4876 23.3533C30.7332 18.7688 34.4003 15.1017 38.9847 14.8561V14.808C34.4003 14.5624 30.7332 10.8953 30.4876 6.31085H30.4394C30.1938 10.8953 26.5267 14.5624 21.9423 14.808V14.8561C26.5267 15.1017 30.1938 18.7688 30.4394 23.3533H30.4876ZM50.7637 53.1691L34.8553 37.2607H34.8577L40.2801 31.8384L55.8056 47.3639C54.373 49.5068 52.6779 51.4571 50.7637 53.1691ZM15.2582 56.8554C17.6034 58.2086 20.1413 59.2656 22.826 59.9591L30.3576 52.4275L37.9277 60C40.6196 59.321 43.1646 58.2808 45.5195 56.9373L30.3479 41.7657L15.2582 56.8554ZM5.20567 47.4987L20.6445 32.0623L25.8429 37.2607L10.0405 53.0631C8.21301 51.4114 6.58774 49.5453 5.20567 47.4987Z" fill="#C89B3C"/>
</svg>
