<svg width="262" height="100" viewBox="0 0 262 100" fill="none" xmlns="http://www.w3.org/2000/svg">
<path d="M247.058 71.8421C242.612 70.7088 238.776 69.7499 238.776 66.0885C238.776 63.2116 240.956 61.3809 244.443 61.3809C247.668 61.2066 250.632 63.386 251.242 66.6115L259.96 62.427C257.606 56.6734 251.94 53.1863 244.704 53.1863C235.289 53.1863 228.751 58.94 228.751 67.1346C228.751 77.1599 235.987 79.0777 242.438 80.7341C246.971 81.8674 250.807 82.9135 250.807 86.6621C250.807 89.8004 248.278 91.8055 244.443 91.8055C240.607 91.8055 237.381 89.7133 236.51 86.5749L227.792 90.7594C230.233 96.513 236.422 100 244.094 100C254.294 100 260.832 94.3336 260.832 85.4416C260.832 75.3292 253.16 73.4113 247.058 71.8421Z" fill="#C79B3B"/>
<path d="M261.529 12.6489V17.2692H254.119V21.628H260.57L259.35 26.074H254.119V32.961H249.063V12.6489H261.529Z" fill="#C79B3B"/>
<path d="M236.335 17.3564C239.474 17.3564 242.002 19.8845 242.002 23.0229C242.002 26.1612 239.474 28.6893 236.335 28.6893C233.197 28.6893 230.669 26.1612 230.669 23.0229C230.669 19.8845 233.197 17.3564 236.335 17.3564ZM236.335 33.5712C242.176 33.5712 246.884 28.7765 246.884 22.9357C246.884 17.0949 242.089 12.3873 236.248 12.3873C230.407 12.3873 225.7 17.182 225.7 22.9357C225.7 28.8637 230.494 33.6584 236.335 33.5712Z" fill="#C79B3B"/>
<path d="M143.405 98.6924H152.82V68.9653L174.178 98.6924H184.029V53.4479H174.527V83.6109L153.43 53.4479H141.226L143.405 57.8939V98.6924Z" fill="#C79B3B"/>
<path d="M215.936 81.4315C214.628 84.657 212.013 87.1851 208.875 88.58C207.218 89.2774 205.475 89.6261 203.644 89.6261H198.239V62.6014H203.644C205.475 62.6014 207.218 62.9501 208.875 63.6475C212.1 64.9552 214.628 67.5704 215.936 70.796C217.331 74.283 217.331 78.0316 215.936 81.4315ZM212.798 55.2786C209.921 54.1453 206.87 53.535 203.818 53.3607H188.388V98.6053H203.818C209.921 98.6053 215.762 96.3387 220.208 92.1542C222.3 90.1491 224.043 87.7082 225.177 85.0057C228.925 76.4624 226.92 66.5243 220.208 60.0733C218.028 58.0682 215.587 56.4119 212.798 55.2786Z" fill="#C79B3B"/>
<path d="M60.3262 98.6924H33.3887V53.4479H60.3262V62.2527H43.2396V71.4062H58.8442L56.4904 79.9495H43.2396V89.8876L60.3262 89.9748V98.6924Z" fill="#C79B3B"/>
<path d="M121.873 62.2527H138.959V53.4479H112.109V98.6924H138.959V89.9748L121.873 89.8876V79.9495H135.123L137.477 71.4062H121.873V62.2527Z" fill="#C79B3B"/>
<path d="M156.046 35.7506C155.174 33.2225 154.738 30.6072 154.825 27.9919L155 0.095462H164.764L164.676 27.556C164.676 30.6072 165.374 33.0482 166.769 34.7917C170.081 38.2787 175.661 38.3659 179.06 34.966L179.235 34.7917C180.717 33.0482 181.414 30.6072 181.414 27.556L181.501 0.00828552H191.44L191.265 28.1663C191.265 30.7816 190.917 33.3969 190.045 35.925C189.26 38.1044 187.953 40.1094 186.383 41.853C184.727 43.5093 182.809 44.817 180.63 45.6016C175.661 47.3451 170.256 47.3451 165.287 45.5143C163.107 44.6426 161.189 43.4221 159.62 41.6786C158.051 40.0222 156.83 38.0172 156.046 35.7506Z" fill="#C79B3B"/>
<path d="M107.052 32.2636C105.832 29.3867 105.222 26.2484 105.222 23.1972C105.222 20.0589 105.919 17.0077 107.14 14.1309C108.36 11.3412 110.104 8.8131 112.283 6.72087C114.462 4.54146 117.078 2.88511 119.867 1.75181C122.744 0.531344 125.883 -0.0788907 129.108 0.00828575C133.38 -0.0789386 137.651 1.0544 141.4 3.14664C144.887 5.1517 147.764 8.11569 149.594 11.7771L140.702 15.9616C139.656 13.8693 138 12.1258 135.995 10.9053C133.903 9.68487 131.462 9.16181 129.021 9.16181C127.19 9.16181 125.272 9.51052 123.616 10.2079C121.96 10.9053 120.478 11.9515 119.257 13.2591C117.949 14.5668 116.99 16.1359 116.293 17.7923C114.811 21.3665 114.811 25.2895 116.206 28.8637C117.514 32.2636 120.216 35.0532 123.529 36.5352C125.272 37.3198 127.103 37.7557 129.021 37.6685C131.81 37.7557 134.6 36.8839 136.867 35.3147C138.959 33.8327 140.441 31.5662 141.051 29.038H124.924L128.934 20.8435H151.425C151.512 22.587 151.425 26.3356 151.338 27.1202C151.076 29.2124 150.553 31.3046 149.769 33.3097C147.589 38.7146 143.318 42.8991 137.913 45.0785C129.021 48.6527 118.908 46.5605 112.109 39.7607C109.929 37.5813 108.273 35.0532 107.052 32.2636Z" fill="#C79B3B"/>
<path d="M2.26659 40.8069V4.80299L0 0.095459H12.0303V36.6224H30.0759L27.5478 45.5144H0L2.26659 40.8069Z" fill="#C79B3B"/>
<path d="M2.26659 93.9849V57.981L0 53.2735H12.0303V89.8004H30.0759L27.5478 98.6924H0L2.26659 93.9849Z" fill="#C79B3B"/>
<path d="M60.3262 45.5148H33.3887V0.270248H60.3262V9.07507H43.2396V18.2286H58.8442L56.4904 26.7719H43.2396V36.6228L60.3262 36.71V45.5148Z" fill="#C79B3B"/>
<path d="M222.649 45.5148H195.798V0.270248H222.736V9.07507H205.649V18.2286H221.254L218.9 26.7719H205.649V36.6228L222.736 36.71V45.5149L222.649 45.5148Z" fill="#C79B3B"/>
<path d="M86.1302 12.8232L91.7967 28.0791H80.2022L86.1302 12.8232ZM73.4896 45.5144L76.8895 36.7096H95.0222L98.5093 45.5144H108.709L90.489 0.095459H76.5408L79.5048 6.02346L63.4644 45.5144H73.4896Z" fill="#C79B3B"/>
<path d="M80.7253 99.3899C82.3817 99.7386 84.038 99.9129 85.7815 99.9129C88.8327 100 91.8839 99.3898 94.7607 98.2566C100.166 96.0771 104.437 91.8927 106.617 86.4877C107.401 84.4827 107.924 82.3904 108.186 80.2982C108.36 78.206 108.36 76.1137 108.273 73.9343H85.7815V74.0215L81.7714 82.2161H97.8119C97.2017 84.7442 95.7197 87.0108 93.6274 88.4928C91.3608 90.1492 88.6584 90.9337 85.8687 90.8466C84.997 90.8466 84.2124 90.7594 83.3406 90.585L81.3356 90.062C80.9868 89.9748 80.7253 89.8004 80.3766 89.7133C77.0639 88.2313 74.3614 85.5288 73.0538 82.0417C71.659 78.4675 71.659 74.4574 73.141 70.8832C73.8384 69.2268 74.8845 67.6576 76.105 66.35C77.3254 65.0423 78.8946 64.0834 80.551 63.386C82.2945 62.6886 84.1252 62.3399 85.9559 62.3399C88.3968 62.2527 90.8378 62.8629 92.93 64.0834C94.9351 65.3039 96.5914 67.0474 97.6375 69.1396L106.53 64.9552C104.699 61.2938 101.909 58.3298 98.3349 56.3247C94.5864 54.2325 90.4019 53.1863 86.0431 53.1863C79.7664 53.0992 73.7512 55.5401 69.218 59.9861C67.0386 62.0783 65.2951 64.6065 64.0746 67.3961C61.5465 73.1497 61.5465 79.7752 63.9874 85.5288C65.2079 88.3184 66.8643 90.8466 68.9565 93.026C70.8744 94.9439 73.141 96.513 75.5819 97.7335C77.2964 98.5058 79.0109 99.1324 80.7253 99.3899Z" fill="#C79B3B"/>
</svg>
