<svg width="108" height="32" viewBox="0 0 108 32" fill="none" xmlns="http://www.w3.org/2000/svg">
<rect width="32" height="32" rx="2.66667" fill="#C28F2B"/>
<path fill-rule="evenodd" clip-rule="evenodd" d="M13.2481 7H8.43376L9.34285 8.85542V23.1458L8.43376 25H19.4823L20.4844 21.4885H13.2481V7ZM14.0133 8.37027C14.6506 8.22013 15.3148 8.1374 15.9994 8.1374C20.6594 8.1374 24.4369 11.8507 24.4381 16.4339C24.4381 19.2737 22.9847 21.7805 20.7703 23.2752L21.2215 21.6916L21.4254 20.976C22.5004 19.7493 23.1518 18.1544 23.1518 16.4107C23.1518 12.5385 19.9493 9.40014 15.9994 9.40014C15.3099 9.40014 14.6444 9.49774 14.0133 9.67559V8.37027ZM20.4849 20.7366H14.0136V10.4511C14.6394 10.2522 15.3062 10.1417 15.9997 10.1417C19.5328 10.1417 22.3961 12.948 22.3961 16.4107C22.3961 18.0883 21.7216 19.6116 20.6264 20.7366H20.4849ZM7.56189 16.4318C7.56189 15.0023 7.93041 13.6582 8.57812 12.4844V20.3805C7.93041 19.2067 7.56189 17.8612 7.56189 16.4318Z" fill="black"/>
<g clip-path="url(#clip0_149_268)">
<path d="M104.293 21.242C103.212 20.97 102.278 20.7399 102.278 19.8612C102.278 19.1707 102.809 18.7313 103.657 18.7313C104.442 18.6895 105.163 19.2126 105.311 19.9867L107.432 18.9824C106.86 17.6015 105.481 16.7646 103.721 16.7646C101.43 16.7646 99.8393 18.1455 99.8393 20.1122C99.8393 22.5183 101.6 22.9786 103.169 23.3761C104.272 23.6481 105.205 23.8992 105.205 24.7988C105.205 25.552 104.59 26.0332 103.657 26.0332C102.724 26.0332 101.939 25.5311 101.727 24.7779L99.606 25.7822C100.2 27.163 101.706 27.9999 103.572 27.9999C106.054 27.9999 107.644 26.64 107.644 24.5059C107.644 22.0789 105.778 21.6186 104.293 21.242Z" fill="white"/>
<path d="M107.814 7.03564V8.14453H106.011V9.19064H107.581L107.284 10.2577H106.011V11.9105H104.781V7.03564H107.814Z" fill="white"/>
<path d="M101.684 8.16547C102.448 8.16547 103.063 8.77222 103.063 9.52542C103.063 10.2786 102.448 10.8854 101.684 10.8854C100.921 10.8854 100.306 10.2786 100.306 9.52542C100.306 8.77222 100.921 8.16547 101.684 8.16547ZM101.684 12.057C103.105 12.057 104.251 10.9063 104.251 9.5045C104.251 8.10271 103.084 6.9729 101.663 6.9729C100.242 6.9729 99.0969 8.12363 99.0969 9.5045C99.0969 10.9272 100.263 12.0779 101.684 12.057Z" fill="white"/>
<path d="M79.0753 27.6861H81.3659V20.5516L86.5622 27.6861H88.9589V16.8274H86.6471V24.0665L81.5144 16.8274H78.5451L79.0753 17.8944V27.6861Z" fill="white"/>
<path d="M96.7215 23.5436C96.4033 24.3178 95.7671 24.9245 95.0035 25.2593C94.6006 25.4266 94.1764 25.5103 93.731 25.5103H92.416V19.0244H93.731C94.1764 19.0244 94.6006 19.1081 95.0035 19.2755C95.7883 19.5893 96.4033 20.217 96.7215 20.9911C97.0608 21.828 97.0608 22.7277 96.7215 23.5436ZM95.958 17.2669C95.258 16.9949 94.5157 16.8485 93.7734 16.8066H90.0193V27.6653H93.7734C95.258 27.6653 96.6791 27.1213 97.7607 26.1171C98.2698 25.6359 98.6939 25.05 98.9697 24.4014C99.8817 22.3511 99.3939 19.9659 97.7607 18.4177C97.2305 17.9364 96.6367 17.5389 95.958 17.2669Z" fill="white"/>
<path d="M58.8629 27.6861H52.3092V16.8274H58.8629V18.9405H54.7059V21.1374H58.5023L57.9297 23.1878H54.7059V25.5729L58.8629 25.5938V27.6861Z" fill="white"/>
<path d="M73.8366 18.9405H77.9936V16.8274H71.4612V27.6861H77.9936V25.5938L73.8366 25.5729V23.1878H77.0604L77.6331 21.1374H73.8366V18.9405Z" fill="white"/>
<path d="M82.1507 12.5801C81.9386 11.9734 81.8325 11.3457 81.8537 10.718L81.8962 4.02288H84.2716L84.2504 10.6134C84.2504 11.3457 84.4201 11.9315 84.7594 12.35C85.5654 13.1869 86.9228 13.2078 87.7499 12.3918L87.7924 12.35C88.1529 11.9315 88.3226 11.3457 88.3226 10.6134L88.3438 4.00195H90.7617L90.7192 10.7599C90.7192 11.3875 90.6344 12.0152 90.4223 12.622C90.2314 13.145 89.9133 13.6262 89.5315 14.0447C89.1285 14.4422 88.6619 14.756 88.1317 14.9443C86.9228 15.3628 85.6078 15.3628 84.3989 14.9234C83.8686 14.7142 83.402 14.4213 83.0203 14.0028C82.6385 13.6053 82.3416 13.1241 82.1507 12.5801Z" fill="white"/>
<path d="M70.231 11.7432C69.9341 11.0528 69.7856 10.2996 69.7856 9.56731C69.7856 8.8141 69.9553 8.08182 70.2523 7.39138C70.5492 6.72187 70.9734 6.11512 71.5036 5.61299C72.0338 5.08993 72.6701 4.6924 73.3488 4.42041C74.0487 4.1275 74.8123 3.98104 75.597 4.00197C76.6363 3.98103 77.6755 4.25303 78.5875 4.75517C79.4359 5.23638 80.1358 5.94774 80.5812 6.82648L78.4178 7.83075C78.1633 7.32862 77.7603 6.91017 77.2725 6.61726C76.7635 6.32434 76.1696 6.19881 75.5758 6.19881C75.1304 6.19881 74.6638 6.2825 74.2608 6.44988C73.8578 6.61726 73.4973 6.86833 73.2003 7.18216C72.8822 7.496 72.6489 7.8726 72.4792 8.27012C72.1187 9.12794 72.1187 10.0694 72.458 10.9273C72.7762 11.7432 73.4336 12.4127 74.2396 12.7684C74.6638 12.9567 75.1092 13.0613 75.5758 13.0404C76.2545 13.0613 76.9332 12.8521 77.4846 12.4755C77.9936 12.1198 78.3542 11.5758 78.5027 10.9691H74.5789L75.5546 9.0024H81.0266C81.0478 9.42085 81.0266 10.3205 81.0054 10.5088C80.9417 11.0109 80.8145 11.5131 80.6236 11.9943C80.0934 13.2915 79.0541 14.2958 77.7391 14.8188C75.5758 15.6766 73.1155 15.1745 71.4612 13.5425C70.9309 13.0195 70.528 12.4127 70.231 11.7432Z" fill="white"/>
<path d="M44.7375 13.7937V5.15275L44.186 4.02295H47.1129V12.7894H51.5032L50.8882 14.9235H44.186L44.7375 13.7937Z" fill="white"/>
<path d="M44.7375 26.5564V17.9155L44.186 16.7856H47.1129V25.5521H51.5032L50.8882 27.6862H44.186L44.7375 26.5564Z" fill="white"/>
<path d="M58.8629 14.9236H52.3092V4.06494H58.8629V6.1781H54.7059V8.37494H58.5023L57.9297 10.4253H54.7059V12.7896L58.8629 12.8105V14.9236Z" fill="white"/>
<path d="M98.3546 14.9236H91.8221V4.06494H98.3758V6.1781H94.2188V8.37494H98.0153L97.4426 10.4253H94.2188V12.7896L98.3758 12.8105V14.9236L98.3546 14.9236Z" fill="white"/>
<path d="M65.1408 7.07761L66.5194 10.739H63.6986L65.1408 7.07761ZM62.0655 14.9235L62.8926 12.8103H67.3042L68.1525 14.9235H70.634L66.2013 4.02295H62.8078L63.5289 5.44567L59.6264 14.9235H62.0655Z" fill="white"/>
<path d="M63.8259 27.8535C64.2289 27.9372 64.6318 27.9791 65.056 27.9791C65.7983 28 66.5407 27.8535 67.2406 27.5815C68.5556 27.0585 69.5948 26.0542 70.125 24.757C70.3159 24.2758 70.4432 23.7737 70.5068 23.2715C70.5492 22.7694 70.5492 22.2673 70.528 21.7442H65.056V21.7651L64.0804 23.7318H67.9829C67.8344 24.3386 67.4739 24.8826 66.9649 25.2382C66.4134 25.6358 65.7559 25.8241 65.0772 25.8031C64.8651 25.8031 64.6743 25.7822 64.4622 25.7404L63.9743 25.6148C63.8895 25.5939 63.8259 25.5521 63.741 25.5312C62.9351 25.1755 62.2776 24.5269 61.9595 23.69C61.6201 22.8322 61.6201 21.8697 61.9807 21.0119C62.1503 20.6144 62.4049 20.2378 62.7018 19.924C62.9987 19.6101 63.3805 19.38 63.7835 19.2126C64.2076 19.0452 64.653 18.9615 65.0984 18.9615C65.6923 18.9406 66.2862 19.0871 66.7952 19.38C67.283 19.6729 67.686 20.0914 67.9405 20.5935L70.1038 19.5892C69.6584 18.7105 68.9797 17.9991 68.1102 17.5179C67.1982 17.0158 66.1801 16.7647 65.1196 16.7647C63.5926 16.7438 62.1291 17.3296 61.0263 18.3966C60.496 18.8988 60.0718 19.5055 59.7749 20.175C59.1598 21.5559 59.1598 23.146 59.7537 24.5269C60.0506 25.1964 60.4536 25.8031 60.9626 26.3262C61.4292 26.7865 61.9807 27.1631 62.5745 27.456C62.9916 27.6414 63.4088 27.7918 63.8259 27.8535Z" fill="white"/>
</g>
<defs>
<clipPath id="clip0_149_268">
<rect width="63.6279" height="24" fill="white" transform="translate(44.186 4)"/>
</clipPath>
</defs>
</svg>
