<svg width="122" height="125" viewBox="0 0 122 125" fill="none" xmlns="http://www.w3.org/2000/svg">
<path fill-rule="evenodd" clip-rule="evenodd" d="M0.165202 8.38884L31.2672 0.0550981L56.3892 93.8119L103.138 81.2855L102.753 105.743L31.3759 124.869L34.0339 111.297L9.25541 18.8218L0.165202 8.38884ZM38.5864 7.5977C42.4436 5.52285 46.5914 3.83773 51.0135 2.65282C81.1188 -5.41387 111.961 12.0767 119.916 41.7325C124.84 60.1091 119.797 78.8471 108.083 92.3531L108.252 81.3238L108.329 76.3405C113.146 66.5413 114.589 55.0932 111.566 43.8092C104.851 18.7521 78.7205 3.9867 53.203 10.8241C48.7488 12.0176 44.6188 13.8012 40.8497 16.0446L38.5864 7.5977ZM10.8867 70.9323C8.40822 61.6825 8.45819 52.346 10.6072 43.629L24.2985 94.7255C18.0789 88.2509 13.3652 80.1822 10.8867 70.9323ZM60.0314 87.6208L101.837 76.4189L102.751 76.174C107.876 66.9982 109.593 55.973 106.684 45.1173C100.68 22.7099 77.3157 9.50656 54.4915 15.6223C50.0106 16.8229 45.8948 18.6917 42.1971 21.0623L60.0314 87.6208Z" fill="#C28F2B"/>
</svg>
