<svg width="30" height="30" viewBox="0 0 30 30" fill="none" xmlns="http://www.w3.org/2000/svg">
<rect width="30" height="30" rx="4" fill="#F2F2F2"/>
<path fill-rule="evenodd" clip-rule="evenodd" d="M12.6862 6H7.87187L8.78097 7.85542V22.1458L7.87187 24H18.9204L19.9226 20.4885H12.6862V6ZM13.4514 7.37027C14.0888 7.22013 14.753 7.1374 15.4375 7.1374C20.0975 7.1374 23.875 10.8507 23.8763 15.4339C23.8763 18.2737 22.4228 20.7805 20.2084 22.2752L20.6597 20.6916L20.8635 19.976C21.9385 18.7493 22.5899 17.1544 22.5899 15.4107C22.5899 11.5385 19.3874 8.40014 15.4375 8.40014C14.748 8.40014 14.0825 8.49774 13.4514 8.67559V7.37027ZM19.923 19.7366H13.4517V9.45109C14.0775 9.25216 14.7443 9.14172 15.4379 9.14172C18.9709 9.14172 21.8342 11.948 21.8342 15.4107C21.8342 17.0883 21.1597 18.6116 20.0645 19.7366H19.923ZM7 15.4318C7 14.0023 7.36852 12.6582 8.01623 11.4844V19.3805C7.36852 18.2067 7 16.8612 7 15.4318Z" fill="black"/>
</svg>
