<svg width="100" height="28" viewBox="0 0 100 28" fill="none" xmlns="http://www.w3.org/2000/svg">
<path d="M16.7627 0.0558963L0 7.81865L4.17668 23.7141L7.35544 23.3238L6.48141 13.3293L7.52515 12.8643L9.32752 23.0811L14.7601 22.4141L13.7944 11.3827L14.828 10.9227L16.8102 22.1629L22.3056 21.4875L21.2483 9.3953L22.2937 8.93028L24.461 21.2227L29.8936 20.5557V3.34497L16.7627 0.0558963ZM17.1565 24.1639L17.4331 25.7287L29.8936 27.806V22.5991L17.1633 24.1639H17.1565ZM41.6786 20.902V23.0455H44.321C44.3213 23.4802 44.209 23.9076 43.9952 24.2861C43.7716 24.6632 43.4407 24.9651 43.0448 25.1533C42.5714 25.3696 42.0545 25.4741 41.5343 25.4588C40.9336 25.4754 40.3419 25.3098 39.8371 24.9836C39.3442 24.6414 38.9638 24.1606 38.7442 23.6021C38.4704 22.9038 38.3394 22.1576 38.3589 21.4077C38.3389 20.6636 38.473 19.9235 38.7527 19.2337C38.9814 18.6839 39.3645 18.2123 39.8558 17.8759C40.3511 17.5544 40.932 17.3899 41.5224 17.4041C41.8298 17.4014 42.136 17.442 42.4321 17.5246C42.6955 17.6001 42.944 17.7201 43.167 17.8793C43.3786 18.0319 43.5614 18.221 43.7066 18.4377C43.8585 18.6696 43.973 18.9238 44.0461 19.1912H46.977C46.9003 18.5762 46.7006 17.9828 46.3898 17.4466C46.0806 16.9175 45.6747 16.4512 45.1933 16.0719C44.6889 15.6776 44.1198 15.3738 43.5115 15.1741C42.8507 14.959 42.1595 14.8524 41.4647 14.8584C40.6517 14.8516 39.8451 15.0015 39.0887 15.2997C38.362 15.5891 37.7049 16.0292 37.1607 16.5912C36.5914 17.1851 36.1516 17.8907 35.8692 18.6634C35.5467 19.5576 35.3897 20.5031 35.4059 21.4535C35.4059 22.8045 35.6627 23.9693 36.1764 24.948C36.6621 25.8906 37.41 26.6728 38.3301 27.2001C39.2623 27.6974 40.2981 27.9694 41.3544 27.9942C42.4107 28.0189 43.4582 27.7958 44.4127 27.3426C45.2385 26.9236 45.9262 26.2755 46.3932 25.4758C46.8741 24.6623 47.114 23.6892 47.1128 22.5567V20.9003L41.6786 20.902ZM78.1723 27.828V15.0247H86.9415V17.394H81.066V20.2384H85.8163V22.6076H81.066V25.4588H86.9551V27.828H78.1723ZM95.4544 18.7822C95.4415 18.5622 95.3811 18.3475 95.2774 18.153C95.1737 17.9584 95.0291 17.7887 94.8536 17.6553C94.4989 17.3855 94.005 17.2514 93.3788 17.2514C93.017 17.2393 92.6563 17.2969 92.3164 17.4211C92.0599 17.5147 91.8348 17.6781 91.6663 17.8929C91.5205 18.0893 91.4413 18.3272 91.4406 18.5718C91.4327 18.7667 91.4791 18.96 91.5747 19.1301C91.6754 19.2992 91.815 19.4418 91.982 19.5459C92.1779 19.6729 92.3888 19.775 92.61 19.8497C92.8678 19.9396 93.1307 20.0138 93.3974 20.0721L94.5226 20.3334C95.0742 20.4507 95.6117 20.6259 96.1264 20.8561C96.5729 21.0552 96.9852 21.3232 97.3484 21.6504C97.6809 21.9532 97.9457 22.3228 98.1257 22.7349C98.314 23.1796 98.4071 23.6589 98.3989 24.1418C98.418 24.8728 98.2079 25.5914 97.7981 26.1971C97.365 26.7985 96.7666 27.2613 96.0755 27.5293C95.214 27.862 94.2952 28.0212 93.372 27.9977C92.435 28.0178 91.503 27.8558 90.6277 27.5208C89.8906 27.2345 89.2567 26.7331 88.8084 26.0817C88.375 25.4413 88.1487 24.6425 88.1295 23.6853H90.9179C90.9215 24.0549 91.0381 24.4146 91.2519 24.7162C91.4658 25.0177 91.7667 25.2466 92.1144 25.3722C92.5066 25.5213 92.9237 25.5939 93.3431 25.5861C93.7281 25.5945 94.1112 25.5318 94.4734 25.4011C94.7595 25.3001 95.0132 25.1243 95.2083 24.892C95.3803 24.6758 95.4742 24.4079 95.4747 24.1316C95.4774 23.8839 95.392 23.6434 95.2338 23.4528C95.0399 23.2413 94.7993 23.078 94.5311 22.9759C94.1525 22.8216 93.7613 22.7 93.3618 22.6127L91.9922 22.2817C90.9004 22.0215 90.0388 21.6108 89.4074 21.0496C88.7761 20.4884 88.4627 19.7281 88.4672 18.7686C88.4473 18.0324 88.669 17.31 89.0986 16.7117C89.5483 16.1033 90.154 15.6278 90.8517 15.3353C91.6563 14.9941 92.5236 14.8258 93.3974 14.8414C94.2672 14.822 95.1309 14.9904 95.9296 15.3353C96.6078 15.6304 97.1902 16.1088 97.6115 16.7168C98.0163 17.3259 98.2291 18.0424 98.2224 18.7737L95.4544 18.7822ZM76.1086 27.828H73.2455V18.0949L72.9519 18.0915L70.06 27.828H67.1986L64.3847 18.0915L64.0198 18.0949V27.828H61.1567V15.0247H66.0224L68.4799 23.6055H68.7769L71.2344 15.0247H76.1086V27.828ZM56.6491 27.828H59.7498L55.4509 15.0264H51.522L47.2163 27.828H50.3221L51.1588 25.0209H55.8124L56.6491 27.828ZM51.8241 22.7875L53.2192 18.0949H53.7453L55.1471 22.7875H51.8241ZM99.1032 16.3791C98.9703 16.3786 98.8404 16.3391 98.7296 16.2655C98.6189 16.1919 98.5323 16.0874 98.4804 15.965C98.4454 15.8817 98.4274 15.7922 98.4274 15.7019C98.4274 15.6116 98.4454 15.5221 98.4804 15.4388C98.5142 15.3584 98.5632 15.2852 98.6246 15.2233C98.687 15.162 98.7601 15.1125 98.8402 15.0773C99.009 15.0094 99.1975 15.0094 99.3663 15.0773C99.4466 15.1121 99.5197 15.1616 99.5818 15.2233C99.6437 15.2853 99.6932 15.3584 99.7278 15.4388C99.7628 15.5221 99.7808 15.6116 99.7808 15.7019C99.7808 15.7922 99.7628 15.8817 99.7278 15.965C99.6932 16.0454 99.6437 16.1185 99.5818 16.1805C99.5201 16.2426 99.4469 16.2922 99.3663 16.3265C99.283 16.3613 99.1936 16.3792 99.1032 16.3791ZM99.1032 16.1941C99.1909 16.1951 99.2771 16.1722 99.3527 16.1279C99.4254 16.0871 99.4866 16.0287 99.5309 15.9582C99.5743 15.8828 99.5971 15.7973 99.5971 15.7104C99.5971 15.6234 99.5743 15.538 99.5309 15.4626C99.4858 15.3921 99.424 15.3338 99.351 15.2929C99.2756 15.2496 99.1902 15.2268 99.1032 15.2268C99.0163 15.2268 98.9309 15.2496 98.8555 15.2929C98.7862 15.3351 98.728 15.3933 98.6857 15.4626C98.6412 15.5376 98.6177 15.6232 98.6177 15.7104C98.6177 15.7976 98.6412 15.8832 98.6857 15.9582C98.728 16.0275 98.7862 16.0856 98.8555 16.1279C98.9305 16.172 99.0162 16.1949 99.1032 16.1941ZM98.8555 15.9989V15.376H99.1576C99.198 15.3752 99.2382 15.3839 99.2747 15.4015C99.3075 15.4172 99.3351 15.4419 99.3544 15.4728C99.3743 15.5067 99.3843 15.5455 99.3833 15.5848C99.3846 15.6244 99.3739 15.6634 99.3527 15.6968C99.3338 15.7282 99.3052 15.7526 99.2713 15.7664C99.234 15.7834 99.1934 15.7915 99.1525 15.7902H98.9488V15.668H99.1185C99.1407 15.6691 99.1625 15.6618 99.1796 15.6476C99.1876 15.6393 99.1939 15.6294 99.198 15.6186C99.2021 15.6078 99.2039 15.5963 99.2034 15.5848C99.2042 15.5732 99.2025 15.5616 99.1984 15.5508C99.1943 15.5399 99.1879 15.5301 99.1796 15.522C99.1625 15.5078 99.1407 15.5005 99.1185 15.5016H99.0252V15.9989H98.8555ZM99.2611 15.7138L99.4002 15.9989H99.2119L99.0846 15.7138H99.2611ZM47.9291 0.174697H50.8228V12.978H47.9291V0.174697ZM64.5646 6.57634C64.5646 7.98158 64.2981 9.16958 63.7652 10.1403C63.2702 11.0776 62.5169 11.8532 61.5946 12.3755C60.6464 12.8814 59.5882 13.146 58.5134 13.146C57.4387 13.146 56.3805 12.8814 55.4322 12.3755C54.5097 11.8513 53.7565 11.0739 53.2616 10.1353C52.7287 9.15544 52.4622 7.96743 52.4622 6.57125C52.4622 5.17506 52.7287 3.98423 53.2616 2.99875C53.7556 2.06435 54.5064 1.29061 55.4254 0.768698C56.374 0.263968 57.4321 0 58.5066 0C59.5811 0 60.6392 0.263968 61.5878 0.768698C62.5101 1.29096 63.2634 2.06664 63.7584 3.00384C64.2914 3.9814 64.5578 5.17223 64.5578 6.57634M61.6133 6.57634C61.6352 5.82305 61.5066 5.07295 61.2348 4.37005C61.0197 3.82067 60.6457 3.34794 60.1605 3.01233C59.6641 2.70716 59.0928 2.5456 58.51 2.5456C57.9273 2.5456 57.356 2.70716 56.8595 3.01233C56.3738 3.3482 55.9987 3.82074 55.7818 4.37005C55.2714 5.79663 55.2714 7.35605 55.7818 8.78263C55.998 9.33235 56.3732 9.80508 56.8595 10.1403C57.356 10.4455 57.9273 10.6071 58.51 10.6071C59.0928 10.6071 59.6641 10.4455 60.1605 10.1403C60.6463 9.80535 61.0205 9.33242 61.2348 8.78263C61.5063 8.07967 61.635 7.32962 61.6133 6.57634ZM41.8483 8.51448L43.335 12.978H46.5103L44.8573 8.16996H42.612L42.4779 7.75586C42.9056 7.6727 43.6371 7.54371 44.2854 7.10245C44.7395 6.79354 45.1118 6.37904 45.3705 5.89455C45.6291 5.41005 45.7664 4.87003 45.7704 4.32083C45.7898 3.56223 45.5983 2.81313 45.2171 2.15697C44.8446 1.52159 44.2917 1.01122 43.6286 0.690629C42.851 0.330576 42.0004 0.156271 41.144 0.181485H35.9795V12.978H38.8749V8.51448H41.8483ZM41.794 5.86523C41.3998 6.01015 40.9816 6.07813 40.5618 6.0655H38.8749V2.52525H40.5567C40.9768 2.51316 41.395 2.58469 41.7872 2.73569C42.0973 2.85903 42.3592 3.07929 42.5339 3.36364C42.7121 3.65029 42.8007 3.98355 42.7885 4.32083C42.8023 4.65302 42.7147 4.98155 42.5373 5.26275C42.3617 5.53916 42.1007 5.7507 41.794 5.86523ZM64.8378 0.174697V2.5507H69.8105L69.9463 2.9665C69.5254 3.04797 68.8143 3.17356 68.1761 3.59445V12.9814H71.0392V2.54391H74.369V0.167908L64.8378 0.174697Z" fill="white"/>
</svg>
