<svg width="105" height="105" viewBox="0 0 105 105" fill="none" xmlns="http://www.w3.org/2000/svg">
<path fill-rule="evenodd" clip-rule="evenodd" d="M0 53.3153C0 23.8745 23.5058 0.00842589 52.5021 0.00842589L52.4979 0C81.4942 0 105 23.8661 105 53.3069C105 60.074 103.747 66.542 101.481 72.4959L69.4176 39.9412L52.3029 57.3183L35.5782 40.3373L3.62713 72.7824C1.29481 66.7527 0 60.1878 0 53.3153ZM52.5477 40.8682C52.971 32.8454 59.2915 26.428 67.1932 25.9982V25.914C59.2915 25.4842 52.971 19.0668 52.5477 11.044H52.4647C52.0414 19.0668 45.7209 25.4842 37.8193 25.914V25.9982C45.7209 26.428 52.0414 32.8454 52.4647 40.8682H52.5477ZM87.4952 93.0459L60.0759 65.2063H60.0801L69.4259 55.7171L96.1853 82.8867C93.7161 86.6369 90.7944 90.05 87.4952 93.0459ZM26.2988 99.497C30.3409 101.865 34.715 103.715 39.3423 104.928L52.3236 91.7481L65.3713 105C70.0111 103.812 74.3976 101.991 78.4564 99.6402L52.307 73.09L26.2988 99.497ZM8.97237 83.1227L35.5824 56.109L44.5423 65.2063L17.3056 92.8605C14.1558 89.9699 11.3545 86.7043 8.97237 83.1227Z" fill="white"/>
</svg>
