<svg width="142" height="32" viewBox="0 0 142 32" fill="none" xmlns="http://www.w3.org/2000/svg">
<rect width="32" height="32" rx="2.66667" fill="#FF4655"/>
<path d="M6.32312 8.01955C6.44302 7.94807 6.51942 8.09255 6.58409 8.16857C10.7456 13.3747 14.9121 18.5771 19.0732 23.7833C19.1587 23.8574 19.094 24.0159 18.9786 23.9988C16.9862 24.0011 14.9934 23.9996 13.0009 23.9996C12.8413 24.0015 12.6885 23.9221 12.5906 23.7976C10.5232 21.2148 8.45702 18.6308 6.38969 16.0476C6.30194 15.9432 6.25656 15.8082 6.26223 15.6724C6.26223 13.1769 6.26299 10.6811 6.26147 8.18559C6.26261 8.12659 6.26034 8.05019 6.32312 8.01955Z" fill="black"/>
<path d="M25.5698 8.00734C25.6549 7.97519 25.7487 8.05386 25.7363 8.14312C25.7393 10.6397 25.7359 13.1363 25.7378 15.6329C25.7434 15.7744 25.7124 15.9208 25.6205 16.032C24.9923 16.8179 24.3633 17.6035 23.7351 18.389C23.6303 18.5252 23.459 18.6004 23.2877 18.5917C21.3085 18.5898 19.3289 18.5929 17.3497 18.5902C17.2328 18.6084 17.1662 18.4507 17.2525 18.3746C19.9972 14.9408 22.7442 11.5081 25.4904 8.07504C25.5112 8.04554 25.5377 8.02284 25.5698 8.00734Z" fill="black"/>
<g clip-path="url(#clip0_149_260)">
<path d="M130.858 11.7149H134.344L134.355 22.404C134.355 22.5415 134.466 22.6546 134.605 22.6546L136.601 22.6531C136.74 22.6531 136.852 22.5415 136.852 22.4026L136.84 11.7149H141.212C141.341 11.7149 141.414 11.5648 141.332 11.4643L139.835 9.58943C139.711 9.43202 139.521 9.34112 139.32 9.34038H130.858C130.719 9.34038 130.607 9.45197 130.607 9.59091V11.4658C130.607 11.6018 130.719 11.7149 130.858 11.7149ZM46.7181 22.4055L56.9447 9.59091C57.0252 9.4904 56.9528 9.34038 56.8242 9.34038H54.2672C54.0669 9.34038 53.8763 9.43276 53.7514 9.58943L46.4964 18.6794V9.58943C46.4964 9.45049 46.3848 9.3389 46.2466 9.3389H44.2498C44.1116 9.3389 44 9.45049 44 9.58943V22.404C44 22.543 44.1116 22.6546 44.2498 22.6546H46.203C46.4033 22.6546 46.5925 22.5629 46.7181 22.4055ZM53.928 22.4055L57.4457 17.998L60.9635 22.4055C61.0884 22.5629 61.279 22.6546 61.48 22.6546H63.4325C63.5715 22.6546 63.6831 22.543 63.6831 22.404V9.58943C63.6831 9.45197 63.5715 9.3389 63.4325 9.3389H61.7949C61.3936 9.3389 61.0137 9.52144 60.7625 9.83552L50.734 22.4026C50.6534 22.5031 50.7258 22.6531 50.8544 22.6531H53.4114C53.6132 22.6546 53.8024 22.5629 53.928 22.4055ZM61.1852 13.0429V18.9469L58.8292 15.9953L61.1852 13.0429ZM118.284 22.4026L108.058 9.58795C107.933 9.43128 107.743 9.33964 107.543 9.3389H105.588C105.45 9.3389 105.339 9.45049 105.339 9.58943V22.404C105.339 22.543 105.45 22.6546 105.588 22.6546H107.542C107.742 22.6546 107.933 22.5629 108.057 22.4055L111.575 17.998L115.092 22.4055C115.217 22.5629 115.406 22.6546 115.607 22.6546H118.164C118.293 22.6546 118.365 22.5045 118.284 22.4026ZM110.189 15.9953L107.832 18.9484V13.0429L110.189 15.9953ZM82.0477 9.00708C78.193 9.00708 75.0684 12.1361 75.0684 15.9967C75.0684 19.8574 78.193 22.9871 82.0477 22.9871C85.9032 22.9871 89.0278 19.8574 89.0278 15.9967C89.0292 12.1361 85.9032 9.00708 82.0477 9.00708ZM82.0477 20.6112C79.5713 20.6112 77.5648 18.5449 77.5648 15.9967C77.5648 13.4486 79.5713 11.3808 82.0477 11.3808C84.5249 11.3808 86.5314 13.4471 86.5314 15.9967C86.5328 18.5449 84.5249 20.6112 82.0477 20.6112ZM126.377 9.58943V18.6794L119.122 9.58795C118.997 9.43128 118.807 9.33964 118.606 9.3389H116.651C116.513 9.3389 116.401 9.45049 116.401 9.58943V15.7647C116.401 15.9147 116.451 16.0603 116.546 16.1778L118.623 18.7814C118.715 18.8959 118.899 18.8309 118.899 18.6853V13.3111L126.155 22.4055C126.28 22.5629 126.47 22.6546 126.671 22.6546H128.624C128.762 22.6546 128.874 22.543 128.874 22.404V9.58943C128.874 9.45197 128.762 9.3389 128.624 9.3389H126.627C126.489 9.3389 126.377 9.45197 126.377 9.58943ZM101.982 12.3667V9.58943C101.982 9.45049 101.87 9.3389 101.732 9.3389H91.5131C91.3749 9.3389 91.2633 9.45049 91.2633 9.58943V22.404C91.2633 22.543 91.3749 22.6546 91.5131 22.6546H93.5099C93.6481 22.6546 93.7597 22.543 93.7597 22.404V11.7163H99.4856L95.6206 16.5613C95.5489 16.6515 95.5489 16.7816 95.6206 16.874L100.036 22.407C100.162 22.5644 100.351 22.656 100.552 22.656H103.109C103.238 22.656 103.309 22.506 103.229 22.4055L98.6905 16.7195L101.836 12.7827C101.93 12.6623 101.982 12.5167 101.982 12.3667ZM66.9303 22.6546H72.8558C73.0561 22.6546 73.2467 22.5629 73.3709 22.4055L74.8674 20.5292C74.948 20.4286 74.8763 20.2786 74.7477 20.2786H69.1769V9.58943C69.1769 9.45049 69.0654 9.3389 68.9272 9.3389H66.9303C66.7921 9.3389 66.6805 9.45049 66.6805 9.58943V22.404C66.6805 22.5415 66.7936 22.6546 66.9303 22.6546Z" fill="white"/>
</g>
<defs>
<clipPath id="clip0_149_260">
<rect width="97.4324" height="14" fill="white" transform="translate(44 9)"/>
</clipPath>
</defs>
</svg>
