<svg width="151" height="136" viewBox="0 0 151 136" fill="none" xmlns="http://www.w3.org/2000/svg">
<path d="M0.4211 34.8343C1.04459 34.172 1.78164 34.9407 2.32283 35.3015C37.708 60.4843 73.1173 85.6346 108.5 110.818C109.168 111.13 109.046 112.238 108.293 112.338C95.8119 115.915 83.3216 119.468 70.8364 123.03C69.8397 123.327 68.7402 123.103 67.9039 122.498C50.3316 110.01 32.7644 97.512 15.1914 85.021C14.455 84.5238 13.9291 83.7588 13.7219 82.8978C9.26031 67.2605 4.80275 51.6195 0.331643 35.9849C0.233265 35.6132 0.0824515 35.1385 0.4211 34.8343Z" fill="#FF4655"/>
<path d="M121.005 0.347354C121.48 -0.0062434 122.209 0.319021 122.29 0.900657C126.773 16.5397 131.215 32.1902 135.691 47.8312C135.979 48.7074 136.046 49.6801 135.669 50.5412C133.138 56.5892 130.601 62.6363 128.069 68.682C127.656 69.7225 126.717 70.5004 125.628 70.7522C113.222 74.279 100.823 77.8372 88.4158 81.3593C87.7159 81.682 87.0168 80.8127 87.4213 80.1821C98.4811 53.7576 109.557 27.3361 120.628 0.913592C120.705 0.69154 120.831 0.502002 121.005 0.347354Z" fill="#FF4655"/>
</svg>
