<svg width="114" height="42" viewBox="0 0 114 42" fill="none" xmlns="http://www.w3.org/2000/svg">
<rect y="5" width="32" height="32" rx="2.66667" fill="#5BC8EF"/>
<path fill-rule="evenodd" clip-rule="evenodd" d="M13.8165 17.4195C13.516 17.6599 14.5977 20.6047 15.4992 22.8283C17.3021 27.2756 18.6243 30.4607 19.6459 32.8647C19.706 33.045 19.6459 33.045 19.4657 32.8647C19.4085 32.8116 19.3485 32.7557 19.286 32.6975C18.4296 31.8994 17.1043 30.6644 16.0401 30.1603C14.8381 27.0953 13.8766 25.1721 13.6362 25.2923C13.4559 25.3524 13.8165 26.8549 14.9583 30.1603H10.5111L11.4726 28.177V25.4125C11.4726 25.2923 11.5327 25.2322 11.5327 25.2322C11.5327 25.2322 11.6529 25.4125 11.8332 25.8332C12.6746 27.6963 13.0953 28.3573 13.2155 28.2972C13.4559 28.1169 12.1337 23.85 11.3525 21.386C10.8116 19.8234 10.5111 18.7417 10.6313 18.6816C10.7515 18.6816 11.1121 19.3427 11.9534 21.0254C12.6746 22.4677 13.1554 23.249 13.3357 23.1288C13.516 23.0086 13.2155 21.8067 12.3741 19.4628C9.78991 12.3112 8.76825 9.12603 8.94854 9.00583C9.06873 8.88564 9.9702 10.6285 11.4125 13.7536C12.3741 15.7969 12.9751 16.6984 13.0953 16.5782C13.3357 16.3979 12.8549 14.4747 11.713 11.0492C11.713 11.0032 11.7043 10.9661 11.6968 10.9344C11.6847 10.8831 11.6759 10.8459 11.713 10.8088C11.713 10.7487 11.7731 10.7487 11.9534 10.7487H15.4992V19.2225C15.4992 19.2535 15.5032 19.2926 15.5071 19.3304C15.5182 19.4388 15.5282 19.5365 15.4391 19.4028C14.5376 17.8402 13.9367 17.2993 13.8165 17.4195ZM19.5258 30.1001L18.0234 26.314H23.0716L21.9898 30.1001H19.5258Z" fill="black"/>
<path d="M108.203 18.5732C107.2 18.3166 106.325 18.1066 106.325 17.2782C106.325 16.6249 106.815 16.2282 107.608 16.2282C108.402 16.2282 108.95 16.6599 109.137 17.4066L111.108 16.4616C110.595 15.1432 109.312 14.3616 107.667 14.3616C105.555 14.3616 104.073 15.6566 104.073 17.4999C104.073 19.7632 105.718 20.1832 107.165 20.5566C108.18 20.8132 109.055 21.0466 109.055 21.8982C109.055 22.5982 108.495 23.0532 107.62 23.0532C106.745 23.0532 106.033 22.5749 105.835 21.8749L103.863 22.8199C104.412 24.1149 105.812 24.9082 107.527 24.9082C109.825 24.9082 111.307 23.6249 111.307 21.6416C111.33 19.3549 109.592 18.9232 108.203 18.5732Z" fill="#C89B3C"/>
<path d="M108.67 9.81156H109.813V8.2599H110.98L111.272 7.2449H109.813V6.2649H111.47V5.22656H108.67V9.81156Z" fill="#C89B3C"/>
<path d="M105.788 9.95165C107.107 9.95165 108.192 8.87832 108.192 7.57165C108.192 6.25332 107.118 5.19165 105.788 5.19165C104.47 5.19165 103.385 6.26498 103.385 7.57165C103.397 8.87832 104.47 9.95165 105.788 9.95165ZM105.788 6.28832C106.5 6.28832 107.072 6.85998 107.072 7.57165C107.072 8.27165 106.5 8.85498 105.788 8.85498C105.077 8.85498 104.505 8.28332 104.505 7.57165C104.505 6.85998 105.088 6.28832 105.788 6.28832Z" fill="#C89B3C"/>
<path d="M84.3568 14.4199L84.8468 15.4349V24.6166H86.9818V17.9083L91.7768 24.6166H94.0051V14.4199H91.8701V21.2216L87.1101 14.4199H84.3568Z" fill="#C89B3C"/>
<path d="M100.492 14.8399C99.8618 14.5833 98.9518 14.4199 98.4734 14.4199H94.9968V24.6166H98.4618C99.1734 24.6166 99.8501 24.4883 100.48 24.2316C101.11 23.9749 101.67 23.6133 102.148 23.1583C102.627 22.7033 103 22.1666 103.268 21.5483C103.537 20.9299 103.677 20.2649 103.677 19.5416C103.677 18.8299 103.537 18.1533 103.268 17.5349C103 16.9166 102.627 16.3799 102.148 15.9249C101.682 15.4699 101.133 15.1083 100.492 14.8399ZM101.192 20.7316C101.04 21.1049 100.818 21.4199 100.55 21.6883C100.282 21.9566 99.9668 22.1783 99.5934 22.3299C99.2201 22.4933 98.8234 22.5633 98.4034 22.5633H97.1901V16.4849H98.4151C98.8351 16.4849 99.2318 16.5666 99.6051 16.7299C99.9784 16.8933 100.293 17.1033 100.562 17.3716C100.83 17.6399 101.04 17.9666 101.203 18.3399C101.355 18.7133 101.437 19.1099 101.437 19.5299C101.437 19.9616 101.355 20.3583 101.192 20.7316Z" fill="#C89B3C"/>
<path d="M60.0551 14.4199V24.6166H66.1218V22.6449L62.2718 22.6216V20.3933H65.2468L65.7834 18.4683H62.2718V16.4033H66.1218V14.4199H60.0551Z" fill="#C89B3C"/>
<path d="M83.5168 18.4683H79.9935V16.4033H83.8551V14.4199H77.7885V24.6166H83.8551V22.6449L79.9935 22.6216V20.3933H82.9801L83.5168 18.4683Z" fill="#C89B3C"/>
<path d="M88.4985 11.7832C88.8485 12.1565 89.2801 12.4366 89.7818 12.6349C90.2835 12.8332 90.8668 12.9382 91.5085 12.9382C92.1501 12.9382 92.7335 12.8449 93.2351 12.6465C93.7485 12.4482 94.1801 12.1682 94.5301 11.8065C94.8801 11.4449 95.1601 11.0015 95.3468 10.4766C95.5451 9.95155 95.6385 9.36822 95.6385 8.73822L95.6735 2.40322H93.4451L93.4101 8.60988C93.4101 9.29822 93.2468 9.83488 92.9201 10.2315C92.5935 10.6282 92.1268 10.8265 91.5085 10.8149C90.8901 10.8149 90.4235 10.6165 90.1085 10.2082C89.7935 9.81155 89.6301 9.26322 89.6301 8.57488L89.6651 2.37988H87.4368L87.4018 8.67988C87.4018 9.32155 87.4951 9.90488 87.6818 10.4299C87.8801 10.9665 88.1485 11.4099 88.4985 11.7832Z" fill="#C89B3C"/>
<path d="M77.7884 11.3283C78.2668 11.8066 78.8268 12.1916 79.4684 12.4716C80.1218 12.7516 80.8101 12.8916 81.5684 12.8916C82.3034 12.8916 82.9801 12.775 83.5984 12.5183C84.2168 12.2616 84.7534 11.9116 85.2084 11.4683C85.6634 11.025 86.0134 10.4883 86.2701 9.86997C86.4568 9.42664 86.5734 8.95997 86.6318 8.46997C86.6551 8.2833 86.6784 7.43164 86.6551 7.04664H81.5918L80.6934 8.88997H84.2984C84.1584 9.4733 83.8434 9.95164 83.3534 10.3133C82.8634 10.675 82.2801 10.85 81.5918 10.85C81.1484 10.85 80.7401 10.7566 80.3668 10.5933C79.9818 10.4183 79.6551 10.185 79.3751 9.8933C79.0951 9.60164 78.8734 9.2633 78.7101 8.86664C78.5468 8.46997 78.4768 8.04997 78.4768 7.60664C78.4768 7.1633 78.5584 6.7433 78.7218 6.34664C78.8851 5.94997 79.1068 5.61164 79.3984 5.31997C79.6784 5.0283 80.0168 4.80664 80.3901 4.6433C80.7634 4.47997 81.1718 4.3983 81.6151 4.3983C82.2101 4.3983 82.7351 4.5383 83.1901 4.79497C83.6451 5.0633 84.0068 5.43664 84.2518 5.9383L86.2468 4.9933C85.8268 4.16497 85.2201 3.5233 84.4034 3.05664C83.5868 2.58997 82.6651 2.34497 81.6268 2.34497C80.8918 2.34497 80.2034 2.4733 79.5501 2.7533C78.8968 3.02164 78.3251 3.40664 77.8351 3.8733C77.3451 4.35164 76.9601 4.91164 76.6801 5.54164C76.3884 6.1833 76.2484 6.85997 76.2484 7.5833C76.2484 8.30664 76.3768 8.99497 76.6568 9.63664C76.9368 10.29 77.3101 10.85 77.7884 11.3283Z" fill="#C89B3C"/>
<path d="M52.5301 2.40332L53.0318 3.45332V11.585L52.5301 12.635H58.7485L59.3085 10.64H55.2368V2.40332H52.5301Z" fill="#C89B3C"/>
<path d="M52.5301 14.385L53.0318 15.4467V23.5667L52.5301 24.6283H58.7485L59.3085 22.6217H55.2368V14.385H52.5301Z" fill="#C89B3C"/>
<path d="M60.0551 2.42676V12.6351H66.1218V10.6634L62.2718 10.6401V8.40009H65.2468L65.7834 6.48676H62.2718V4.42176H66.1218V2.42676H60.0551Z" fill="#C89B3C"/>
<path d="M96.6418 2.42676V12.6351H102.708V10.6634L98.8468 10.6401V8.40009H101.833L102.37 6.48676H98.8468V4.42176H102.708V2.42676H96.6418Z" fill="#C89B3C"/>
<path d="M69.0851 12.635L69.8551 10.64H73.9385L74.7318 12.635H77.0301L72.9351 2.40332H69.7968L70.4501 3.73332L66.8335 12.635H69.0851ZM71.9318 5.26165L73.2035 8.69165H70.6018L71.9318 5.26165Z" fill="#C89B3C"/>
<path d="M70.7185 22.6332C70.6951 22.6215 70.6601 22.6099 70.6368 22.5982C70.2518 22.4232 69.9251 22.1899 69.6451 21.8982C69.3651 21.6065 69.1435 21.2682 68.9801 20.8715C68.8168 20.4749 68.7468 20.0549 68.7468 19.6115C68.7468 19.1682 68.8285 18.7482 68.9918 18.3515C69.1551 17.9549 69.3768 17.6165 69.6685 17.3249C69.9485 17.0332 70.2868 16.8115 70.6601 16.6482C71.0335 16.4849 71.4418 16.4032 71.8851 16.4032C72.4801 16.4032 73.0051 16.5432 73.4601 16.7999C73.9151 17.0682 74.2768 17.4415 74.5218 17.9432L76.5168 16.9982C76.0968 16.1699 75.4901 15.5282 74.6735 15.0615C73.8568 14.5949 72.9351 14.3499 71.8968 14.3499C71.1618 14.3499 70.4735 14.4782 69.8201 14.7582C69.1668 15.0265 68.5951 15.4115 68.1051 15.8782C67.6151 16.3565 67.2301 16.9165 66.9501 17.5465C66.6585 18.1882 66.5185 18.8649 66.5185 19.5882C66.5185 20.3115 66.6468 20.9999 66.9268 21.6415C67.2068 22.2832 67.5801 22.8432 68.0585 23.3215C68.5135 23.7765 69.0501 24.1499 69.6568 24.4182L70.7185 22.6332Z" fill="#C89B3C"/>
<path d="M76.9251 19.0632H71.8501L70.9518 20.9066H74.5568C74.4168 21.4899 74.1018 21.9682 73.6118 22.3299C73.1218 22.6916 72.5384 22.8666 71.8501 22.8666C71.5468 22.8666 71.2551 22.8199 70.9751 22.7382L70.4851 24.7449C70.9168 24.8499 71.3601 24.9082 71.8268 24.9082C72.5618 24.9082 73.2384 24.7916 73.8568 24.5349C74.4751 24.2782 75.0118 23.9282 75.4668 23.4849C75.9218 23.0416 76.2718 22.5049 76.5284 21.8866C76.7151 21.4432 76.8318 20.9766 76.8901 20.4866C76.9134 20.2999 76.9484 19.4482 76.9251 19.0632Z" fill="#C89B3C"/>
<path d="M67.0551 30.4149C68.1518 27.9415 71.0451 22.0849 71.1501 21.8865C71.2434 21.7115 71.2434 21.6182 71.1034 21.8165C70.4034 22.8315 69.2484 24.4999 68.2101 26.0049C67.6968 26.7399 67.3001 27.0549 67.0901 27.1832C66.9851 27.2532 66.9034 27.3465 66.8568 27.4515C66.5651 28.1399 63.9284 34.1132 63.4151 35.4899C63.1934 34.3815 62.9251 32.6782 62.9134 31.9899C62.9134 31.8265 62.9484 31.6399 62.8318 31.8732C62.7734 32.0015 62.6101 32.3049 62.6101 32.3049L62.3768 32.3515C61.7234 33.0749 60.7434 34.3932 59.0751 36.4232C59.0751 36.4232 60.5684 32.1299 60.7668 31.6165C61.2334 30.4849 60.5918 31.4415 61.1518 30.0065C61.2451 29.7849 61.9568 27.6615 62.1551 27.0665C62.2251 26.8565 62.2018 26.9032 62.0034 27.1715C61.7001 27.6032 61.0001 28.5832 60.8251 28.7815C60.6734 28.9332 59.8451 31.1265 59.7868 31.2899C59.7168 31.4882 59.6701 31.4882 59.7051 31.2899C59.7868 30.9165 60.1251 29.4232 60.1718 29.2365C60.2068 29.0965 60.0084 29.3065 59.8801 29.7032C59.7868 29.9949 59.4368 31.0565 59.1451 32.0715C58.8884 32.9465 56.6951 40.5999 56.6368 40.8215C56.9751 40.5299 57.5818 39.5732 57.8968 39.4799C58.1301 39.4099 58.1418 39.1299 58.4684 38.7332C59.2851 37.7065 59.8218 36.9482 62.1201 34.3232C62.4701 36.1782 62.9251 39.2815 62.9251 39.2815C62.9251 39.2815 63.2634 38.8499 63.4384 38.3715C63.6018 37.9049 63.7534 38.0449 63.8118 37.8582C64.2901 36.2832 65.9584 32.8882 67.0551 30.4149Z" fill="#32C8FF"/>
<path d="M77.9985 32.8066C78.2901 32.4216 78.8151 31.5232 78.8151 30.7416C78.8151 29.9016 78.1268 29.2366 76.5518 29.2366C75.5718 29.2366 74.5685 29.5749 73.1801 30.0766C72.8185 30.2049 72.8651 30.2282 73.1918 30.1816C73.5301 30.1349 74.1601 30.0182 74.3701 29.9832C74.5918 29.9366 74.5451 30.2049 74.9768 30.0999C74.8135 30.3916 74.3468 31.3249 73.8218 32.5032C73.1101 34.1016 72.7835 35.0582 72.7251 35.2449C72.6668 35.5016 73.3668 35.4432 72.9935 35.6532C72.5151 35.9216 71.8618 36.2832 71.1501 36.6332C70.7651 36.8199 70.3568 37.0066 71.5001 36.6449C74.7668 35.6066 76.5868 34.6499 77.9985 32.8066ZM74.6968 32.7366C75.2451 31.4182 75.6418 30.6949 75.7818 30.3332C75.8285 30.1932 75.7001 30.1816 75.4435 30.0299C75.6418 30.0066 76.0385 29.9599 76.2485 29.9599C77.0535 29.9599 77.7651 30.1699 77.7651 30.8699C77.7651 32.1649 75.7701 34.4166 73.6935 35.2799C73.6818 35.2799 73.9968 34.4166 74.6968 32.7366Z" fill="#32C8FF"/>
<path d="M84.9518 34.4632L84.8584 34.2416C84.8584 34.2416 83.7618 33.4016 83.1551 32.8766C84.9984 32.0366 90.2834 29.6566 89.9801 27.2882C89.8051 25.9699 87.7518 25.5732 86.3751 25.5732C82.8401 25.5732 77.7418 26.8799 76.4234 27.3582C76.3884 27.3699 76.3884 27.3816 76.4351 27.3816C79.4101 26.8682 87.9151 25.8882 88.0434 27.6849C88.1368 29.0616 83.5634 31.6516 82.3034 32.2699L82.1984 32.1766C82.6884 30.8232 83.2601 29.4816 83.3418 29.2716C83.3651 29.2132 83.3418 29.1899 83.2951 29.1549C83.2368 29.1199 83.0618 29.0149 83.0034 28.9682C82.9451 28.9332 82.9451 28.9099 82.9801 28.8399C83.0968 28.6532 83.2718 28.4199 83.3534 28.3149C83.4234 28.2216 83.3884 28.2332 83.3068 28.2449C82.8518 28.3266 81.6968 28.5716 80.0634 29.2366C79.9468 29.2832 79.9584 29.3066 80.0868 29.2716C80.5768 29.1549 82.2334 28.6999 81.9768 29.3766C81.8951 29.5982 81.5568 30.4499 81.0551 31.7799C80.7051 31.7799 80.6934 31.9432 80.5184 32.0016C80.3901 32.0482 79.7718 31.9199 80.0284 32.1416C80.2151 32.3049 80.3201 32.3982 80.6934 32.7366C80.1334 34.2182 79.2701 36.5866 79.2701 36.5866C79.2001 36.7849 79.4568 36.7966 79.6551 37.0999C79.8884 37.4382 80.0284 38.0682 80.1801 37.6599C80.3668 37.1582 81.3234 34.3349 81.6734 33.5182C81.6734 33.5182 83.1084 34.6616 83.5518 34.9999C84.4734 35.6999 85.2551 36.3299 86.0018 36.8082C86.5151 37.1466 86.6551 37.1582 85.9084 36.5516C84.6601 35.5366 84.8234 35.5366 86.5734 36.7032C86.8068 36.8666 87.0401 37.0066 87.2618 37.0066C87.4251 37.0182 87.5184 37.0299 88.0318 37.3566C88.4168 37.6016 88.6851 37.7766 89.3501 38.2316C90.2134 38.8266 90.3768 38.7916 89.5484 38.1382C88.7201 37.4849 84.9518 34.4632 84.9518 34.4632Z" fill="#32C8FF"/>
<path d="M106.045 26.5884C102.638 26.3784 94.9735 26.9617 92.1735 27.65C92.0685 27.6734 92.0685 27.7317 92.0918 27.8017C92.1151 27.895 92.4418 28.0467 92.4651 28.175C92.5118 28.455 92.9085 28.385 92.8151 28.6184C92.7218 28.8517 92.0568 30.52 92.0568 30.52C91.7535 30.6367 91.2635 30.8467 91.2518 30.8817C91.2168 30.9634 91.6485 31.15 91.6601 31.465C91.3335 32.27 90.8668 33.67 90.7968 33.8567C90.7385 34.0317 91.0068 34.09 91.0885 34.265C91.1701 34.4517 91.2985 34.79 91.3451 34.86C91.4385 35 91.4735 34.895 91.5318 34.7667C91.6018 34.58 91.8235 33.95 91.9285 33.6467C92.1385 33.0517 92.7335 31.29 92.7335 31.29C93.6201 30.94 94.0751 30.905 94.0868 30.8234C94.0868 30.695 94.3435 30.555 94.3435 30.555C94.3435 30.555 94.4835 30.4617 94.4835 30.4034C94.4835 30.345 94.7168 30.2984 94.8335 30.2284C94.9501 30.1584 94.9035 30.1117 94.8101 30.0884C94.2035 30.0767 93.6318 30.1467 93.1301 30.2634C93.3051 29.785 93.7135 28.6884 93.8885 28.3384C94.7868 28.105 95.7668 27.93 97.0268 27.7434C96.6535 28.735 95.8135 31.08 95.7085 31.36C95.5801 31.6984 95.4518 31.815 95.4868 31.9434C95.5218 32.0717 95.1951 32.865 94.9968 33.4834C94.9268 33.7167 94.9385 33.74 95.0085 33.81C95.0435 33.845 95.0668 33.8567 95.1485 33.7167C95.4051 33.2034 95.5218 33.3784 95.2651 34.1017C95.2535 34.1367 95.2535 34.1484 95.2768 34.1717C95.3935 34.3817 95.7085 34.7317 95.7901 34.475C96.3151 32.83 97.0385 30.4734 98.0885 27.6034C99.5818 27.4167 100.002 27.3817 100.573 27.3234C100.818 27.3 100.9 27.0434 101.273 27.0084C102.895 26.8684 104.75 26.7284 106.045 26.635C106.138 26.6117 106.185 26.5884 106.045 26.5884Z" fill="#32C8FF"/>
<path d="M68.0584 32.0949C67.8018 32.1883 67.8718 32.2699 67.6501 32.4916C67.5684 32.5849 67.3818 32.5383 67.3351 32.6433C66.9384 33.5766 66.0051 35.6766 65.7484 36.5866C65.7134 36.7033 65.7834 36.8083 65.8534 36.8433C65.8534 36.8433 65.9934 36.4233 66.0634 36.4816C66.1801 36.5749 66.0634 37.0883 66.1568 37.1466C66.3201 37.2399 66.4601 37.3099 66.5534 37.0999C66.6701 36.8433 67.0668 35.7116 67.5568 34.5683C67.9534 33.6233 68.4901 32.5499 68.8284 32.0599C69.0734 31.7099 68.3151 32.0133 68.0584 32.0949Z" fill="#32C8FF"/>
<path d="M70.7185 33.1216C71.1618 32.2582 71.6751 31.3366 71.8851 30.9632C72.0018 30.7532 71.1035 31.1032 70.9635 31.1732C70.8118 31.2432 70.6135 31.3132 70.4501 31.6282C70.2751 31.9549 69.6335 33.2499 69.1551 34.4049C68.9685 34.8716 68.4785 35.7816 68.4201 35.9332C68.4201 35.9916 68.4318 36.1316 68.5018 36.2832C68.5251 36.3299 68.7935 36.2366 68.8285 36.2949C68.8518 36.3416 68.0935 36.7499 67.9068 36.8782C67.8135 36.9482 67.8251 36.9482 67.9068 36.9132C68.2801 36.7849 70.0301 36.2599 70.9985 35.9332C71.0568 35.8632 71.1968 35.6649 71.3485 35.3966C71.2201 35.4199 70.9051 35.4782 70.8001 35.5016C70.7535 35.5132 70.7185 35.4666 70.8001 35.4199C70.9518 35.3382 72.3168 34.6499 71.7568 34.8132C71.1968 34.9766 70.3685 35.2099 69.5168 35.5599C69.5051 35.5716 70.1468 34.2416 70.7185 33.1216Z" fill="#32C8FF"/>
<path d="M90.0035 29.9832C89.8635 30.1232 89.7351 30.4849 89.5485 30.6249C89.4435 30.6949 89.1051 30.8232 89.0585 30.9282C88.7435 31.7566 87.9035 34.0899 87.8685 34.3932C87.8568 34.5216 87.9151 34.5566 88.0085 34.5916C88.2185 34.6849 88.3235 34.4516 88.4985 34.5332C88.5918 34.5799 88.4868 34.8249 88.5335 34.9066C88.6035 35.0349 88.6735 34.9416 88.7551 34.6849C88.9651 33.9966 89.5368 32.2816 89.8168 31.5816C90.0851 30.9166 90.3068 30.3799 90.4935 29.9249C90.5518 29.7732 90.1435 29.8432 90.0035 29.9832Z" fill="#32C8FF"/>
<path d="M107.737 26.6H107.527V26.4833H108.087V26.6H107.877V27.09H107.748V26.6H107.737ZM108.227 26.4717H108.367L108.577 26.7983L108.787 26.4717H108.927V27.0783H108.798V26.67L108.588 26.9967H108.577L108.367 26.67V27.0783H108.238V26.4717H108.227Z" fill="#32C8FF"/>
</svg>
