<svg width="124" height="141" viewBox="0 0 124 141" fill="none" xmlns="http://www.w3.org/2000/svg">
<path fill-rule="evenodd" clip-rule="evenodd" d="M47.1016 47.8612C45.5451 49.977 57.8797 67.4813 67.7514 80.5493C87.495 106.685 101.839 125.35 112.822 139.394C113.537 140.477 113.14 140.583 111.633 139.713C111.162 139.464 110.668 139.201 110.154 138.928C103.097 135.179 92.1775 129.378 84.2702 127.934C70.9309 109.85 61.1938 98.869 59.8212 100.086C58.7387 100.801 63.7703 110.07 77.1381 129.845L47.8169 137.702L50.653 122.927L45.7692 104.701C45.5569 103.908 45.8469 103.406 45.8469 103.406C45.8469 103.406 46.9579 104.382 48.8898 106.837C57.7283 117.634 61.6698 121.249 62.3561 120.641C63.6225 119.028 47.3673 93.2308 37.8633 78.3655C31.5368 69.019 27.6446 62.4177 28.3309 61.8091C29.1234 61.5968 32.6686 65.3183 41.1886 74.9264C48.4915 83.1619 53.0416 87.4636 54.0179 86.3526C54.9943 85.2416 50.8897 77.8479 41.2018 63.8812C11.5296 21.2949 -0.83331 2.09951 0.143045 0.988541C0.723169 -0.016263 9.74557 9.88191 24.776 27.9379C34.7255 39.7111 40.2803 44.5928 40.8605 43.588C42.1269 41.9747 35.5596 30.1446 21.9795 9.57661C21.8984 9.27391 21.775 9.04451 21.6695 8.84859C21.499 8.53157 21.3755 8.30218 21.5548 7.99168C21.4486 7.59545 21.8449 7.48927 23.0336 7.17076L46.4112 0.906734L61.3812 56.7754C61.4361 56.9802 61.5315 57.2307 61.6238 57.4729C61.8888 58.1681 62.1275 58.7944 61.3035 58.0703C52.5996 49.3608 47.6817 46.8564 47.1016 47.8612ZM107.146 121.38L90.5514 99.0713L123.835 90.153L123.391 117.027L107.146 121.38Z" fill="#5BC8EF"/>
</svg>
