<svg width="106" height="68" viewBox="0 0 106 68" fill="none" xmlns="http://www.w3.org/2000/svg">
<path d="M99.5837 28.7243C97.8 28.272 96.2445 27.902 96.2445 26.4426C96.2445 25.2915 97.1156 24.5926 98.5259 24.5926C99.9363 24.5926 100.911 25.3532 101.243 26.6687L104.748 25.0037C103.836 22.6809 101.554 21.3037 98.6296 21.3037C94.8756 21.3037 92.2415 23.5854 92.2415 26.8332C92.2415 30.8209 95.1659 31.5609 97.7378 32.2187C99.5422 32.6709 101.098 33.082 101.098 34.5826C101.098 35.8159 100.102 36.6176 98.5467 36.6176C96.9911 36.6176 95.7259 35.7748 95.3733 34.5415L91.8682 36.2065C92.843 38.4882 95.3319 39.8859 98.3807 39.8859C102.467 39.8859 105.101 37.6248 105.101 34.1304C105.142 30.1015 102.052 29.3409 99.5837 28.7243Z" fill="white"/>
<path d="M100.414 13.2871H102.447V10.5532H104.521L105.039 8.76485H102.447V7.03818H105.392V5.20874H100.414V13.2871Z" fill="white"/>
<path d="M95.2912 13.5339C97.6349 13.5339 99.5637 11.6428 99.5637 9.34055C99.5637 7.01777 97.6556 5.14722 95.2912 5.14722C92.9475 5.14722 91.0186 7.03833 91.0186 9.34055C91.0393 11.6428 92.9475 13.5339 95.2912 13.5339ZM95.2912 7.07944C96.5563 7.07944 97.5726 8.08666 97.5726 9.34055C97.5726 10.5739 96.5563 11.6017 95.2912 11.6017C94.026 11.6017 93.0097 10.5944 93.0097 9.34055C93.0097 8.08666 94.0467 7.07944 95.2912 7.07944Z" fill="white"/>
<path d="M57.1904 21.4065L58.0615 23.1948V39.372H61.8571V27.5526L70.3815 39.372H74.343V21.4065H70.5475V33.3904L62.0852 21.4065H57.1904Z" fill="white"/>
<path d="M85.8746 22.1466C84.7546 21.6944 83.1368 21.4066 82.2865 21.4066H76.1057V39.3722H82.2657C83.5309 39.3722 84.7339 39.1461 85.8539 38.6938C86.9739 38.2416 87.9694 37.6044 88.8198 36.8027C89.6702 36.0011 90.3339 35.0555 90.8109 33.9661C91.2879 32.8766 91.5368 31.7049 91.5368 30.4305C91.5368 29.1766 91.2879 27.9844 90.8109 26.8949C90.3339 25.8055 89.6702 24.8599 88.8198 24.0583C87.9902 23.2566 87.0153 22.6194 85.8746 22.1466ZM87.119 32.5272C86.8494 33.1849 86.4553 33.7399 85.9783 34.2127C85.5013 34.6855 84.9413 35.0761 84.2776 35.3433C83.6139 35.6311 82.9087 35.7544 82.162 35.7544H80.005V25.0449H82.1828C82.9294 25.0449 83.6346 25.1888 84.2983 25.4766C84.962 25.7644 85.522 26.1344 85.999 26.6072C86.4761 27.0799 86.8494 27.6555 87.1398 28.3133C87.4094 28.9711 87.5546 29.6699 87.5546 30.4099C87.5546 31.1705 87.4094 31.8694 87.119 32.5272Z" fill="white"/>
<path d="M13.9872 21.4066V39.3722H24.7724V35.8983L17.9279 35.8572V31.9311H23.2168L24.1709 28.5394H17.9279V24.9011H24.7724V21.4066H13.9872Z" fill="white"/>
<path d="M55.6964 28.5393H49.4327V24.9009H56.2979V21.4065H45.5127V39.372H56.2979V35.8982L49.4327 35.857V31.9309H54.7423L55.6964 28.5393Z" fill="white"/>
<path d="M64.553 16.761C65.1753 17.4188 65.9427 17.9121 66.8345 18.2616C67.7264 18.611 68.7634 18.796 69.9041 18.796C71.0449 18.796 72.0819 18.6316 72.9738 18.2821C73.8864 17.9327 74.6538 17.4394 75.276 16.8021C75.8982 16.1649 76.396 15.3838 76.7278 14.4588C77.0804 13.5338 77.2464 12.506 77.2464 11.396L77.3086 0.234351H73.3471L73.2849 11.1699C73.2849 12.3827 72.9945 13.3282 72.4138 14.0271C71.833 14.726 71.0034 15.0755 69.9041 15.0549C68.8049 15.0549 67.9752 14.7055 67.4152 13.986C66.8552 13.2871 66.5649 12.321 66.5649 11.1082L66.6271 0.193237H62.6656L62.6034 11.2932C62.6034 12.4238 62.7693 13.4516 63.1012 14.3766C63.4538 15.3221 63.9308 16.1032 64.553 16.761Z" fill="white"/>
<path d="M45.513 15.9594C46.3634 16.8021 47.359 17.4805 48.4997 17.9738C49.6612 18.4671 50.8849 18.7138 52.233 18.7138C53.5397 18.7138 54.7427 18.5083 55.8419 18.056C56.9412 17.6038 57.8953 16.9871 58.7042 16.206C59.513 15.4249 60.1353 14.4794 60.5916 13.3899C60.9234 12.6088 61.1308 11.7866 61.2345 10.9233C61.276 10.5944 61.3175 9.09381 61.276 8.41548H52.2745L50.6775 11.6633H57.0864C56.8375 12.691 56.2775 13.5338 55.4064 14.171C54.5353 14.8083 53.4982 15.1166 52.2745 15.1166C51.4864 15.1166 50.7605 14.9521 50.0967 14.6644C49.4123 14.356 48.8316 13.9449 48.3338 13.431C47.836 12.9171 47.4419 12.321 47.1516 11.6221C46.8612 10.9233 46.7367 10.1833 46.7367 9.40215C46.7367 8.62103 46.8819 7.88103 47.1723 7.18215C47.4627 6.48326 47.8568 5.88715 48.3753 5.37326C48.873 4.85937 49.4745 4.46881 50.1382 4.18104C50.8019 3.89326 51.5279 3.74937 52.316 3.74937C53.3738 3.74937 54.3071 3.99604 55.116 4.44826C55.9249 4.92104 56.5679 5.57881 57.0034 6.4627L60.5501 4.7977C59.8034 3.33826 58.7249 2.2077 57.273 1.38548C55.8212 0.563257 54.1827 0.131592 52.3367 0.131592C51.0301 0.131592 49.8064 0.357703 48.6449 0.851036C47.4834 1.32381 46.4671 2.00215 45.596 2.82437C44.7249 3.66715 44.0404 4.65381 43.5427 5.76381C43.0242 6.89437 42.7753 8.08659 42.7753 9.36104C42.7753 10.6355 43.0034 11.8483 43.5012 12.9788C43.999 14.1299 44.6627 15.1166 45.513 15.9594Z" fill="white"/>
<path d="M0.609375 0.234375L1.50123 2.08438V16.4116L0.609375 18.2616H11.6642L12.6597 14.7466H5.42123V0.234375H0.609375Z" fill="white"/>
<path d="M0.609375 21.345L1.50123 23.2155V37.5222L0.609375 39.3927H11.6642L12.6597 35.8572H5.42123V21.345H0.609375Z" fill="white"/>
<path d="M13.9872 0.275513V18.2616H24.7724V14.7877L17.9279 14.7466V10.8H23.2168L24.1709 7.42885H17.9279V3.79051H24.7724V0.275513H13.9872Z" fill="white"/>
<path d="M79.0302 0.275513V18.2616H89.8153V14.7877L82.9502 14.7466V10.8H88.2598L89.2139 7.42885H82.9502V3.79051H89.8153V0.275513H79.0302Z" fill="white"/>
<path d="M30.0401 18.2616L31.409 14.7466H38.6682L40.0786 18.2616H44.1645L36.8845 0.234375H31.3053L32.4667 2.57771L26.0371 18.2616H30.0401ZM35.1008 5.27049L37.3616 11.3138H32.7364L35.1008 5.27049Z" fill="white"/>
<path d="M32.9442 35.8776C32.9027 35.8571 32.8405 35.8365 32.799 35.816C32.1146 35.5076 31.5338 35.0965 31.0361 34.5826C30.5383 34.0688 30.1442 33.4726 29.8538 32.7738C29.5635 32.0749 29.439 31.3349 29.439 30.5538C29.439 29.7726 29.5842 29.0326 29.8746 28.3338C30.1649 27.6349 30.559 27.0388 31.0775 26.5249C31.5753 26.011 32.1768 25.6204 32.8405 25.3326C33.5042 25.0449 34.2301 24.901 35.0183 24.901C36.0761 24.901 37.0094 25.1476 37.8183 25.5999C38.6272 26.0726 39.2701 26.7304 39.7057 27.6143L43.2524 25.9493C42.5057 24.4899 41.4272 23.3593 39.9753 22.5371C38.5235 21.7149 36.8849 21.2832 35.039 21.2832C33.7324 21.2832 32.5087 21.5093 31.3472 22.0026C30.1857 22.4754 29.1694 23.1538 28.2983 23.976C27.4272 24.8188 26.7427 25.8054 26.2449 26.9154C25.7264 28.046 25.4775 29.2382 25.4775 30.5126C25.4775 31.7871 25.7057 32.9999 26.2035 34.1304C26.7012 35.261 27.3649 36.2476 28.2153 37.0904C29.0242 37.8921 29.9783 38.5499 31.0568 39.0226L32.9442 35.8776Z" fill="white"/>
<path d="M43.9783 29.5876H34.9561L33.359 32.8354H39.7679C39.5191 33.8632 38.9591 34.706 38.0879 35.3432C37.2168 35.9804 36.1798 36.2888 34.9561 36.2888C34.4168 36.2888 33.8983 36.2065 33.4005 36.0626L32.5294 39.5982C33.2968 39.7832 34.085 39.886 34.9146 39.886C36.2213 39.886 37.4242 39.6804 38.5235 39.2282C39.6228 38.776 40.5768 38.1593 41.3857 37.3782C42.1946 36.5971 42.8168 35.6515 43.2731 34.5621C43.605 33.781 43.8124 32.9588 43.9161 32.0954C43.9576 31.7665 44.0198 30.266 43.9783 29.5876Z" fill="white"/>
<path d="M26.4316 49.5882C28.3813 45.2305 33.525 34.9116 33.7116 34.5621C33.8776 34.2538 33.8776 34.0893 33.6287 34.4388C32.3842 36.2271 30.3309 39.1666 28.485 41.8182C27.5724 43.1132 26.8672 43.6682 26.4939 43.8943C26.3072 44.0177 26.162 44.1821 26.079 44.3671C25.5605 45.5799 20.8731 56.1043 19.9605 58.5299C19.5665 56.5771 19.0894 53.576 19.0687 52.3632C19.0687 52.0755 19.1309 51.7466 18.9235 52.1577C18.8198 52.3838 18.5294 52.9182 18.5294 52.9182L18.1146 53.0005C16.9531 54.2749 15.2109 56.5977 12.245 60.1743C12.245 60.1743 14.8998 52.6099 15.2524 51.7055C16.082 49.7116 14.9413 51.3971 15.9368 48.8688C16.1027 48.4782 17.3679 44.7371 17.7205 43.6888C17.845 43.3188 17.8035 43.401 17.4509 43.8738C16.9116 44.6343 15.6672 46.361 15.3561 46.7105C15.0865 46.9777 13.6139 50.8421 13.5102 51.1299C13.3857 51.4793 13.3027 51.4793 13.365 51.1299C13.5102 50.4721 14.1116 47.841 14.1946 47.5121C14.2568 47.2655 13.9042 47.6355 13.6761 48.3343C13.5102 48.8482 12.8879 50.7188 12.3694 52.5071C11.9131 54.0488 8.01386 67.5332 7.91016 67.9238C8.51164 67.4099 9.59015 65.7243 10.1502 65.5599C10.565 65.4366 10.5857 64.9432 11.1665 64.2443C12.6183 62.4355 13.5724 61.0993 17.6583 56.4743C18.2805 59.7427 19.0894 65.2105 19.0894 65.2105C19.0894 65.2105 19.6909 64.4499 20.002 63.6071C20.2924 62.7849 20.562 63.0316 20.6657 62.7027C21.5161 59.9277 24.482 53.946 26.4316 49.5882Z" fill="#32C8FF"/>
<path d="M45.8869 53.8022C46.4054 53.1239 47.3387 51.5411 47.3387 50.1639C47.3387 48.6839 46.115 47.5122 43.315 47.5122C41.5728 47.5122 39.7891 48.1083 37.3209 48.9922C36.678 49.2183 36.7609 49.2594 37.3417 49.1772C37.9432 49.095 39.0632 48.8894 39.4365 48.8278C39.8306 48.7455 39.7476 49.2183 40.515 49.0333C40.2246 49.5472 39.395 51.1917 38.4617 53.2678C37.1965 56.0839 36.6158 57.7694 36.5121 58.0983C36.4083 58.5505 37.6528 58.4478 36.9891 58.8178C36.1387 59.2905 34.9772 59.9278 33.7121 60.5444C33.0276 60.8733 32.3017 61.2022 34.3343 60.565C40.1417 58.7355 43.3772 57.05 45.8869 53.8022ZM40.0172 53.6789C40.9921 51.3561 41.6972 50.0817 41.9461 49.4444C42.0291 49.1978 41.8009 49.1772 41.3446 48.91C41.6972 48.8689 42.4024 48.7866 42.7758 48.7866C44.2069 48.7866 45.4721 49.1567 45.4721 50.39C45.4721 52.6717 41.9254 56.6389 38.2335 58.16C38.2128 58.16 38.7728 56.6389 40.0172 53.6789Z" fill="#32C8FF"/>
<path d="M58.2479 56.7211L58.082 56.3305C58.082 56.3305 56.1324 54.8505 55.0539 53.9255C58.3309 52.4455 67.7265 48.2522 67.1872 44.0794C66.8761 41.7566 63.2257 41.0577 60.7783 41.0577C54.4939 41.0577 45.4302 43.36 43.0865 44.2027C43.0242 44.2233 43.0242 44.2439 43.1072 44.2439C48.3961 43.3394 63.5161 41.6127 63.7442 44.7783C63.9102 47.2038 55.7798 51.7672 53.5398 52.8566L53.3531 52.6922C54.2242 50.3077 55.2405 47.9438 55.3857 47.5738C55.4272 47.4711 55.3857 47.43 55.3028 47.3683C55.1991 47.3066 54.8879 47.1216 54.7842 47.0394C54.6805 46.9777 54.6805 46.9366 54.7428 46.8133C54.9502 46.4844 55.2613 46.0733 55.4065 45.8883C55.5309 45.7239 55.4687 45.7444 55.3235 45.765C54.5146 45.9088 52.4613 46.3405 49.5576 47.5122C49.3502 47.5944 49.3709 47.6355 49.5991 47.5738C50.4702 47.3683 53.4154 46.5666 52.9591 47.7588C52.8139 48.1494 52.2124 49.65 51.3205 51.9933C50.6983 51.9933 50.6776 52.2811 50.3665 52.3838C50.1383 52.4661 49.0391 52.24 49.4954 52.6305C49.8272 52.9183 50.0139 53.0827 50.6776 53.6788C49.682 56.2894 48.1472 60.4622 48.1472 60.4622C48.0228 60.8116 48.4791 60.8322 48.8317 61.3666C49.2465 61.9627 49.4954 63.0727 49.765 62.3533C50.0968 61.4694 51.7976 56.495 52.4198 55.0561C52.4198 55.0561 54.9709 57.0705 55.7591 57.6666C57.3976 58.9 58.7872 60.01 60.1146 60.8527C61.0272 61.4488 61.2761 61.4694 59.9487 60.4005C57.7294 58.6122 58.0198 58.6122 61.1309 60.6677C61.5457 60.9555 61.9605 61.2022 62.3546 61.2022C62.645 61.2227 62.8109 61.2433 63.7235 61.8188C64.408 62.2505 64.885 62.5588 66.0672 63.3605C67.602 64.4088 67.8924 64.3472 66.4198 63.1961C64.9472 62.045 58.2479 56.7211 58.2479 56.7211Z" fill="#32C8FF"/>
<path d="M95.7468 42.8461C89.6905 42.4761 76.0638 43.5039 71.0861 44.7166C70.8994 44.7577 70.8994 44.8605 70.9409 44.9838C70.9823 45.1483 71.5631 45.4155 71.6046 45.6416C71.6875 46.135 72.3927 46.0116 72.2268 46.4227C72.0609 46.8338 70.8786 49.7733 70.8786 49.7733C70.3394 49.9789 69.4683 50.3489 69.4475 50.4105C69.3853 50.5544 70.1527 50.8833 70.1735 51.4383C69.5927 52.8566 68.7631 55.3233 68.6386 55.6522C68.5349 55.9605 69.012 56.0633 69.1572 56.3716C69.3023 56.7005 69.5305 57.2966 69.6135 57.42C69.7794 57.6666 69.8416 57.4816 69.9453 57.2555C70.0698 56.9266 70.4638 55.8166 70.6505 55.2822C71.0238 54.2339 72.0816 51.13 72.0816 51.13C73.6579 50.5133 74.4668 50.4516 74.4875 50.3077C74.4875 50.0816 74.9438 49.835 74.9438 49.835C74.9438 49.835 75.1927 49.6705 75.1927 49.5677C75.1927 49.465 75.6075 49.3827 75.8149 49.2594C76.0223 49.1361 75.9394 49.0539 75.7735 49.0127C74.6949 48.9922 73.6786 49.1155 72.7868 49.3211C73.0979 48.4783 73.8238 46.5461 74.1349 45.9294C75.732 45.5183 77.4742 45.21 79.7142 44.8811C79.0505 46.6283 77.5572 50.76 77.3705 51.2533C77.1423 51.8494 76.9142 52.055 76.9764 52.2811C77.0386 52.5072 76.4579 53.905 76.1053 54.9944C75.9809 55.4055 76.0016 55.4466 76.1261 55.57C76.1883 55.6316 76.2298 55.6522 76.3749 55.4055C76.8312 54.5011 77.0386 54.8094 76.5823 56.0838C76.5616 56.1455 76.5616 56.1661 76.6031 56.2072C76.8105 56.5772 77.3705 57.1939 77.5157 56.7416C78.449 53.8433 79.7349 49.6911 81.6016 44.6344C84.2564 44.3055 85.0031 44.2439 86.0194 44.1411C86.4549 44.1 86.6001 43.6477 87.2638 43.5861C90.1468 43.3394 93.4446 43.0927 95.7468 42.9283C95.9127 42.8872 95.9957 42.8461 95.7468 42.8461Z" fill="#32C8FF"/>
<path d="M28.215 52.5483C27.7587 52.7127 27.8832 52.8566 27.4891 53.2472C27.3439 53.4116 27.012 53.3294 26.9291 53.5144C26.2239 55.1588 24.5646 58.8588 24.1083 60.4622C24.0461 60.6677 24.1706 60.8527 24.295 60.9144C24.295 60.9144 24.5439 60.1744 24.6683 60.2772C24.8758 60.4416 24.6683 61.3461 24.8343 61.4488C25.1246 61.6133 25.3735 61.7366 25.5395 61.3666C25.7469 60.9144 26.4521 58.9205 27.3232 56.9061C28.0283 55.2411 28.9824 53.3499 29.5839 52.4866C30.0195 51.8699 28.6713 52.4044 28.215 52.5483Z" fill="#32C8FF"/>
<path d="M32.9442 54.3572C33.7323 52.836 34.6449 51.2122 35.0182 50.5544C35.2256 50.1844 33.6286 50.8011 33.3797 50.9244C33.1101 51.0477 32.7575 51.171 32.4671 51.726C32.156 52.3016 31.0153 54.5833 30.1649 56.6183C29.8331 57.4405 28.9619 59.0438 28.8582 59.311C28.8582 59.4138 28.879 59.6605 29.0034 59.9277C29.0449 60.0099 29.5219 59.8455 29.5842 59.9483C29.6257 60.0305 28.2775 60.7499 27.9457 60.976C27.7797 61.0994 27.8005 61.0994 27.9457 61.0377C28.6094 60.8116 31.7205 59.8866 33.4419 59.311C33.5457 59.1877 33.7945 58.8383 34.0642 58.3655C33.836 58.4066 33.276 58.5094 33.0894 58.5505C33.0064 58.571 32.9442 58.4888 33.0894 58.4066C33.359 58.2627 35.7857 57.0499 34.7901 57.3377C33.7945 57.6255 32.3219 58.0366 30.8079 58.6533C30.7871 58.6738 31.9279 56.3305 32.9442 54.3572Z" fill="#32C8FF"/>
<path d="M67.2286 48.8277C66.9797 49.0743 66.7516 49.7116 66.4197 49.9582C66.2331 50.0816 65.6316 50.3077 65.5486 50.4927C64.9886 51.9521 63.4953 56.0632 63.433 56.5977C63.4123 56.8238 63.516 56.8855 63.6819 56.9471C64.0553 57.1116 64.2419 56.7005 64.5531 56.8443C64.719 56.9266 64.5323 57.3582 64.6153 57.5021C64.7397 57.7282 64.8642 57.5638 65.0093 57.1116C65.3827 55.8988 66.399 52.8771 66.8968 51.6438C67.3738 50.4721 67.7679 49.5266 68.0997 48.7249C68.2034 48.4577 67.4775 48.581 67.2286 48.8277Z" fill="#32C8FF"/>
<path d="M98.7542 42.8665H98.3809V42.6609H99.3764V42.8665H99.0031V43.7298H98.7749V42.8665H98.7542ZM99.6253 42.6404H99.8742L100.248 43.2159L100.621 42.6404H100.87V43.7093H100.642V42.9898L100.268 43.5654H100.248L99.8742 42.9898V43.7093H99.6461V42.6404H99.6253Z" fill="#32C8FF"/>
</svg>
