<svg width="161" height="60" viewBox="0 0 161 60" fill="none" xmlns="http://www.w3.org/2000/svg">
<path fill-rule="evenodd" clip-rule="evenodd" d="M0 30.4659C0 13.6426 13.6378 0.00481479 30.4611 0.00481479L30.4587 0C47.282 0 60.9198 13.6378 60.9198 30.4611C60.9198 34.328 60.1926 38.024 58.878 41.4262L40.2753 22.8235L30.3455 32.7533L20.6421 23.0499L2.10442 41.59C0.751233 38.1444 0 34.393 0 30.4659ZM30.4876 23.3533C30.7332 18.7688 34.4003 15.1017 38.9847 14.8561V14.808C34.4003 14.5624 30.7332 10.8953 30.4876 6.31085H30.4394C30.1938 10.8953 26.5267 14.5624 21.9423 14.808V14.8561C26.5267 15.1017 30.1938 18.7688 30.4394 23.3533H30.4876ZM50.7637 53.1691L34.8553 37.2607H34.8577L40.2801 31.8384L55.8056 47.3639C54.373 49.5068 52.6779 51.4571 50.7637 53.1691ZM15.2582 56.8554C17.6034 58.2086 20.1413 59.2656 22.826 59.9591L30.3576 52.4275L37.9277 60C40.6196 59.321 43.1646 58.2808 45.5195 56.9373L30.3479 41.7657L15.2582 56.8554ZM5.20567 47.4987L20.6445 32.0623L25.8429 37.2607L10.0405 53.0631C8.21301 51.4114 6.58774 49.5453 5.20567 47.4987Z" fill="white"/>
<path fill-rule="evenodd" clip-rule="evenodd" d="M156.05 22.313C159.043 23.098 160.678 24.2008 160.678 26.3244L160.682 26.3293C160.682 28.3181 159.486 30.006 156.924 30.4418V31.4049L153.847 32.8809V30.4153C151.355 30.0132 150.088 28.855 150.088 28.855L151.764 26.4978C151.764 26.4978 153.611 27.7282 155.479 27.7282C156.647 27.7282 157.071 27.2394 157.071 26.6663C157.071 26.009 156.623 25.6671 154.692 25.1374C151.889 24.3525 150.298 23.3123 150.298 21.2103C150.298 18.8964 151.848 17.2615 155.414 17.2615C158.98 17.2615 160.381 18.6195 160.381 18.6195L158.725 21.1236C158.725 21.1236 157.345 20.0617 155.414 20.0617C154.203 20.0617 153.842 20.4663 153.842 20.996C153.842 21.634 154.437 21.8893 156.05 22.313ZM72.5665 20.1894H68.5527V17.536H79.6334V20.1894H75.6437V30.2732H72.5665V20.1894ZM81.2924 17.536H84.3696V30.2732H81.2924V17.536ZM114.265 30.2732V17.536H113.458L107.578 22.992L101.783 17.536H100.955V30.2732H104.01V23.5651L107.364 26.8349H107.896L111.207 23.5868V30.2732H114.265ZM130.977 17.536L139.212 24.2874V17.5576H142.27V30.2732H141.569L133.332 23.2473V30.2732H130.277V17.536H130.977ZM148.152 17.536H145.075V30.2732H148.152V17.536ZM74.6565 40.3065C73.0433 39.8828 72.4486 39.6275 72.4486 38.9895C72.4486 38.4598 72.8097 38.0552 74.0184 38.0552C75.9495 38.0552 77.3292 39.1171 77.3292 39.1171L78.9857 36.613C78.9857 36.613 77.5844 35.255 74.0184 35.255C70.4525 35.255 68.9019 36.8899 68.9019 39.2038C68.9019 41.3058 70.4934 42.3459 73.2961 43.1309C75.2272 43.6606 75.6726 44.0025 75.6726 44.6598C75.6726 45.2329 75.2488 45.7217 74.081 45.7217C72.2126 45.7217 70.3658 44.4913 70.3658 44.4913L68.69 46.8485C68.69 46.8485 70.5368 48.546 74.1677 48.546C77.7987 48.546 79.2843 46.6342 79.2843 44.3203C79.2843 42.1967 77.6494 41.0939 74.6565 40.3089V40.3065ZM116.083 38.9895C116.083 39.6275 116.677 39.8828 118.291 40.3065V40.3089C121.284 41.0939 122.918 42.1967 122.918 44.3203C122.918 46.6342 121.433 48.546 117.802 48.546C114.171 48.546 112.324 46.8485 112.324 46.8485L114 44.4913C114 44.4913 115.847 45.7217 117.715 45.7217C118.883 45.7217 119.307 45.2329 119.307 44.6598C119.307 44.0025 118.861 43.6606 116.93 43.1309C114.128 42.3459 112.536 41.3058 112.536 39.2038C112.536 36.8899 114.087 35.255 117.653 35.255C121.219 35.255 122.62 36.613 122.62 36.613L120.963 39.1171C120.963 39.1171 119.584 38.0552 117.653 38.0552C116.444 38.0552 116.083 38.4598 116.083 38.9895ZM107.314 38.5729L110.391 36.9332V35.5295H107.314V38.5729ZM107.314 39.7431H110.391V48.2667H107.314V39.7431ZM124.915 38.5729L127.994 36.9332V35.5295H124.915V38.5729ZM124.915 39.7431H127.992V48.2667H124.915V39.7431ZM122.016 17.536L115.351 30.2732H118.811L122.165 22.927H122.333L125.731 30.2732H129.212L122.526 17.536H122.016ZM99.2113 30.0613V30.2732H99.2089H95.7055L93.2014 26.558H90.2518V30.2732H87.1747V17.536H93.1821C96.4086 17.536 98.4673 19.1925 98.4673 21.9735C98.4673 23.7577 97.6631 25.029 96.346 25.7731V26.0499L99.2113 30.0613ZM90.2518 24.0105H93.0762C94.4992 24.0105 95.2842 23.3291 95.2842 22.0987C95.2842 20.8684 94.4775 20.1894 93.0545 20.1894H90.2518V24.0105ZM102.705 43.7665C104.022 43.0225 104.826 41.7512 104.826 39.967C104.826 37.186 102.768 35.5295 99.5411 35.5295H93.5337V48.2667H96.6108V44.5515H99.5604L102.065 48.2667H105.568V48.0548L102.703 44.0434V43.7665H102.705ZM99.4352 42.004H96.6108V38.1829H99.4135C100.837 38.1829 101.643 38.8619 101.643 40.0922C101.643 41.3226 100.858 42.004 99.4352 42.004ZM81.2924 35.5295H91.4076V38.1829H81.2924V35.5295ZM91.4076 40.5714H81.2924V43.2248H91.4076V40.5714ZM81.2924 45.6133H91.4076V48.2667H81.2924V45.6133Z" fill="white"/>
</svg>
