<svg width="110" height="42" viewBox="0 0 110 42" fill="none" xmlns="http://www.w3.org/2000/svg">
<path d="M103.598 30.1735C101.734 29.6976 100.126 29.2948 100.126 27.757C100.126 26.5488 101.039 25.7799 102.502 25.7799C103.854 25.7066 105.097 26.622 105.353 27.9767L109.009 26.2192C108.022 23.8027 105.645 22.3381 102.611 22.3381C98.6633 22.3381 95.9216 24.7547 95.9216 28.1964C95.9216 32.407 98.9558 33.2125 101.661 33.9082C103.562 34.3842 105.17 34.8235 105.17 36.3979C105.17 37.716 104.11 38.5582 102.502 38.5582C100.893 38.5582 99.5406 37.6794 99.1751 36.3613L95.5195 38.1188C96.5431 40.5353 99.1385 41.9999 102.355 41.9999C106.632 41.9999 109.374 39.62 109.374 35.8853C109.374 31.6381 106.157 30.8326 103.598 30.1735Z" fill="white"/>
<path d="M109.667 5.31262V7.25317H106.56V9.08387H109.265L108.753 10.9512H106.56V13.8437H104.44V5.31262H109.667Z" fill="white"/>
<path d="M99.1024 7.28976C100.418 7.28976 101.478 8.35157 101.478 9.66968C101.478 10.9878 100.418 12.0496 99.1024 12.0496C97.7864 12.0496 96.7262 10.9878 96.7262 9.66968C96.7262 8.35157 97.7864 7.28976 99.1024 7.28976ZM99.1024 14.1C101.552 14.1 103.526 12.0862 103.526 9.63306C103.526 7.17992 101.515 5.20276 99.0658 5.20276C96.6166 5.20276 94.6426 7.21653 94.6426 9.63306C94.6426 12.1228 96.6531 14.1366 99.1024 14.1Z" fill="white"/>
<path d="M60.1338 41.4508H64.0818V28.9654L73.0379 41.4508H77.1687V22.4481H73.1841V35.1166L64.3377 22.4481H59.2199L60.1338 24.3154V41.4508Z" fill="white"/>
<path d="M90.5486 34.2014C90.0003 35.5561 88.9036 36.6179 87.5876 37.2037C86.8931 37.4966 86.162 37.6431 85.3943 37.6431H83.1278V26.2927H85.3943C86.162 26.2927 86.8931 26.4392 87.5876 26.7321C88.9402 27.2813 90.0003 28.3797 90.5486 29.7344C91.1335 31.199 91.1335 32.7734 90.5486 34.2014ZM89.2326 23.2171C88.0263 22.7411 86.7468 22.4848 85.4674 22.4116H78.9971V41.4143H85.4674C88.0263 41.4143 90.4755 40.4624 92.3398 38.7049C93.2172 37.8628 93.9483 36.8376 94.4235 35.7025C95.9954 32.1144 95.1546 27.9403 92.3398 25.2309C91.426 24.3888 90.4024 23.6931 89.2326 23.2171Z" fill="white"/>
<path d="M25.2966 41.4507H14.001V22.448H25.2966V26.146H18.1318V29.9905H24.6752L23.6882 33.5787H18.1318V37.7527L25.2966 37.7893V41.4507Z" fill="white"/>
<path d="M51.105 26.146H58.2698V22.448H47.0107V41.4507H58.2698V37.7893L51.105 37.7527V33.5787H56.6614L57.6484 29.9905H51.105V26.146Z" fill="white"/>
<path d="M65.4343 15.0152C65.0688 13.9534 64.886 12.855 64.9226 11.7565L64.9957 0.040032H69.0899L69.0534 11.5735C69.0534 12.855 69.3458 13.8802 69.9307 14.6124C71.3198 16.077 73.6594 16.1136 75.085 14.6857L75.1581 14.6124C75.7796 13.8802 76.072 12.855 76.072 11.5735L76.1086 0.00341797H80.2759L80.2028 11.8298C80.2028 12.9282 80.0566 14.0266 79.691 15.0884C79.362 16.0038 78.8137 16.8459 78.1557 17.5782C77.4611 18.2738 76.6569 18.8231 75.743 19.1526C73.6594 19.8849 71.3929 19.8849 69.3093 19.1159C68.3954 18.7498 67.5911 18.2372 66.9331 17.5049C66.2751 16.8093 65.7633 15.9672 65.4343 15.0152Z" fill="white"/>
<path d="M44.8907 13.5506C44.3789 12.3424 44.123 11.0243 44.123 9.74278C44.123 8.42468 44.4155 7.14319 44.9273 5.93492C45.439 4.76327 46.1702 3.70146 47.084 2.82273C47.9979 1.90737 49.0946 1.21171 50.2644 0.735723C51.4707 0.223126 52.7867 -0.0331725 54.1393 0.00344156C55.9305 -0.0331926 57.7217 0.44281 59.2936 1.32155C60.7558 2.16367 61.9622 3.40855 62.7298 4.94634L59.0012 6.70382C58.5625 5.82508 57.8679 5.0928 57.0272 4.5802C56.1498 4.0676 55.1263 3.84792 54.1027 3.84792C53.335 3.84792 52.5308 3.99438 51.8363 4.28729C51.1417 4.5802 50.5203 5.01957 50.0085 5.56878C49.4602 6.11799 49.058 6.77704 48.7656 7.47271C48.1442 8.97389 48.1442 10.6215 48.729 12.1227C49.2774 13.5506 50.4106 14.7223 51.7997 15.3447C52.5308 15.6743 53.2985 15.8573 54.1027 15.8207C55.2725 15.8574 56.4423 15.4912 57.3927 14.8321C58.27 14.2097 58.8915 13.2577 59.1474 12.1959H52.3846L54.0662 8.7542H63.4975C63.5341 9.48649 63.4975 11.0609 63.4609 11.3904C63.3512 12.2692 63.1319 13.1479 62.8029 13.99C61.889 16.2601 60.0978 18.0176 57.8314 18.9329C54.1027 20.4341 49.8622 19.5554 47.0109 16.6995C46.097 15.7841 45.4025 14.7223 44.8907 13.5506Z" fill="white"/>
<path d="M0.950628 17.1387V2.01708L0.000183105 0.039917H5.04485V15.3812H12.6119L11.5517 19.1158H0.000183105L0.950628 17.1387Z" fill="white"/>
<path d="M0.950628 39.4734V24.3518L0.000183105 22.3746H5.04485V37.7159H12.6119L11.5517 41.4506H0.000183105L0.950628 39.4734Z" fill="white"/>
<path d="M25.2966 19.116H14.001V0.113281H25.2966V3.8113H18.1318V7.65578H24.6752L23.6882 11.244H18.1318V15.3813L25.2966 15.418V19.116Z" fill="white"/>
<path d="M93.3626 19.116H82.1035V0.113281H93.3992V3.8113H86.2343V7.65578H92.7777L91.7907 11.244H86.2343V15.3813L93.3992 15.418V19.116L93.3626 19.116Z" fill="white"/>
<path d="M36.1169 5.38557L38.493 11.793H33.6312L36.1169 5.38557ZM30.8164 19.1158L32.242 15.4178H39.8456L41.3078 19.1158H45.5848L37.9447 0.039917H32.0958L33.3387 2.52967L26.6125 19.1158H30.8164Z" fill="white"/>
<path d="M33.8512 41.7441C34.5457 41.8905 35.2403 41.9637 35.9714 41.9637C37.2508 42.0004 38.5303 41.7441 39.7366 41.2681C42.003 40.3527 43.7943 38.5952 44.7082 36.3252C45.0372 35.483 45.2565 34.6043 45.3662 33.7256C45.4393 32.8468 45.4393 31.9681 45.4027 31.0527H35.9714V31.0894L34.2898 34.5311H41.016C40.7602 35.5929 40.1387 36.5449 39.2614 37.1673C38.3109 37.863 37.1777 38.1925 36.0079 38.1559C35.6424 38.1559 35.3134 38.1193 34.9478 38.046L34.1071 37.8263C33.9608 37.7897 33.8512 37.7165 33.7049 37.6799C32.3158 37.0575 31.1826 35.9224 30.6343 34.4579C30.0494 32.9567 30.0494 31.2724 30.6708 29.7713C30.9633 29.0756 31.4019 28.4165 31.9137 27.8673C32.4255 27.3181 33.0835 26.9154 33.778 26.6224C34.5092 26.3295 35.2768 26.1831 36.0445 26.1831C37.0681 26.1465 38.0916 26.4028 38.9689 26.9154C39.8097 27.428 40.5043 28.1602 40.9429 29.039L44.6716 27.2815C43.9039 25.7437 42.7342 24.4988 41.2354 23.6567C39.6635 22.778 37.9088 22.3386 36.081 22.3386C33.449 22.302 30.9267 23.3272 29.0258 25.1945C28.1119 26.0732 27.3808 27.135 26.869 28.3067C25.8089 30.7232 25.8089 33.5059 26.8325 35.9224C27.3443 37.0941 28.0388 38.1559 28.9162 39.0712C29.7204 39.8767 30.6708 40.5358 31.6944 41.0484C32.4133 41.3728 33.1322 41.6359 33.8512 41.7441Z" fill="white"/>
</svg>
