<svg width="102" height="26" viewBox="0 0 102 26" fill="none" xmlns="http://www.w3.org/2000/svg">
<path fill-rule="evenodd" clip-rule="evenodd" d="M15.159 14.0822H13.6811L14.6617 16.2787H21.0294V22.3025H10.9259L7.2587 14.0828L4.48229 8.05904H15.2797C15.817 8.05904 16.2522 7.60963 16.2522 7.05493C16.2522 6.50023 15.817 6.05082 15.2797 6.05082H3.55723L0.780823 0.0270386H15.2797C18.993 0.0270386 22.021 3.1132 22.0845 6.93212C22.1499 10.8642 18.9675 14.0822 15.159 14.0822ZM1.42388 14.0822H7.25746V22.3462H1.42388V14.0822ZM71.858 15.9337H74.2807C74.2807 15.0198 74.8755 14.4104 75.5574 14.4104C76.4134 14.4104 76.8631 14.9182 76.8631 15.4695C76.8631 15.8612 76.5729 16.2818 76.1377 16.6736L71.8725 20.5616V22.3461H79.3148V20.0249H75.7895L77.8205 18.429C78.8071 17.6166 79.3583 16.5575 79.3583 15.513C79.3583 13.7431 78.2993 12.0313 75.5574 12.0313C73.2797 12.0313 71.858 13.7286 71.858 15.9337ZM83.8602 18.4871C83.8602 20.6488 85.1223 22.3171 87.6467 22.3171C88.43 22.3171 89.1699 22.0995 89.6777 21.5047V21.9109C89.6051 23.2891 88.7202 23.7388 87.8933 23.7533C87.1679 23.7679 86.486 23.3761 86.486 22.8974H84.0923C84.0923 24.7978 86.0218 25.973 87.9658 25.973C89.9533 25.973 91.9553 24.7978 91.9553 21.8963V14.4976H89.6777V15.281C89.1554 14.6136 88.3866 14.4105 87.6322 14.4105C85.1368 14.396 83.8602 16.224 83.8602 18.4871ZM86.1524 18.5161C86.1379 17.5732 86.7181 16.5866 87.9077 16.5866C88.8797 16.5866 89.6777 17.4426 89.6777 18.4871C89.6777 19.5751 88.7927 20.141 87.9077 20.1555C87.0374 20.1555 86.1669 19.6187 86.1524 18.5161ZM93.1399 18.4871C93.1399 20.6488 94.402 22.3171 96.9263 22.3171C97.7097 22.3171 98.4496 22.0995 98.9574 21.5047V21.9109C98.8848 23.2891 97.9999 23.7388 97.1729 23.7533C96.4475 23.7679 95.7657 23.3761 95.7657 22.8974H93.372C93.372 24.7978 95.3015 25.973 97.2455 25.973C99.2329 25.973 101.235 24.7978 101.235 21.8963V14.4976H98.9574V15.281C98.4351 14.6136 97.6662 14.4105 96.9117 14.4105C94.4165 14.396 93.1399 16.224 93.1399 18.4871ZM95.4321 18.5161C95.4175 17.5732 95.9978 16.5866 97.1874 16.5866C98.1594 16.5866 98.9574 17.4426 98.9574 18.4871C98.9574 19.5751 98.0724 20.141 97.1874 20.1555C96.3169 20.1555 95.4466 19.6187 95.4321 18.5161ZM81.661 19.8075C82.4445 19.8075 83.0102 20.3297 83.0102 21.0986C83.0102 21.737 82.4445 22.3897 81.661 22.3897C80.9356 22.3897 80.3554 21.737 80.3554 21.0986C80.3554 20.3297 80.9356 19.8075 81.661 19.8075ZM67.2563 18.9949L67.8366 17.0075L68.8086 14.4976H71.1733V14.8603C70.888 15.5815 70.6028 16.3021 70.3176 17.0222L70.3169 17.024C69.3119 19.5624 68.3086 22.0961 67.3143 24.6384H64.9496V24.2902L65.9652 21.7078L63.3538 14.8603V14.4976H65.733L66.705 17.0075L67.2563 18.9949ZM60.0546 15.2084C59.5323 14.6136 58.7924 14.367 58.0235 14.367C55.4847 14.367 54.2516 16.137 54.2226 18.2841C54.2081 20.4456 55.4992 22.4477 57.9946 22.4477C58.7489 22.4477 59.5178 22.2301 60.0546 21.5627V22.3462H62.3323V12.1184H60.0546V15.2084ZM60.0546 18.3711C60.0546 19.4157 59.2567 20.2571 58.2701 20.2571C57.0951 20.2571 56.5003 19.2851 56.5148 18.3421C56.5293 17.3847 57.1096 16.4706 58.2701 16.4706C59.2567 16.4706 60.0546 17.3266 60.0546 18.3711ZM48.7014 14.3668C49.4702 14.3668 50.2246 14.657 50.7324 15.3098V14.4974H53.0101V22.346H50.7324V21.5626C50.1956 22.23 49.4268 22.4475 48.6724 22.4475C46.177 22.4475 44.8859 20.4455 44.9004 18.2839C44.9295 16.1368 46.1626 14.3668 48.7014 14.3668ZM48.948 20.2569C49.9344 20.2569 50.7324 19.4155 50.7324 18.3709C50.7324 17.3264 49.9344 16.4704 48.948 16.4704C47.7874 16.4704 47.2071 17.3844 47.1926 18.342C47.1781 19.2849 47.7729 20.2569 48.948 20.2569ZM43.6288 19.2999C43.6869 19.0097 43.7159 18.7196 43.7159 18.4004C43.7159 15.731 41.7139 14.3963 39.6974 14.3818C37.6517 14.3674 35.6062 15.7021 35.6062 18.4004C35.6062 21.0553 37.5792 22.39 39.5668 22.4335C41.2206 22.4625 42.8744 21.6066 43.4837 19.8656H41.003C40.6694 20.2283 40.1906 20.4024 39.6829 20.4024C38.9865 20.3879 38.2756 20.0252 38 19.2999H43.6288ZM41.2206 17.5155H38.087C38.3191 16.7466 38.943 16.3693 39.6248 16.3693C40.3647 16.3693 41.003 16.732 41.2206 17.5155ZM30.7559 18.908H30.3497V22.3463H27.8834V12.104H31.8294C34.1796 12.104 35.3548 13.8449 35.3257 15.5423C35.2967 16.7609 34.6439 18.0376 33.3382 18.6614L35.5143 21.8821V22.3463H32.8739L30.7559 18.908ZM30.3497 14.4833V16.6594H31.7714C32.4967 16.6594 32.8885 16.1226 32.903 15.6148C32.9175 15.0781 32.5403 14.4833 31.7714 14.4833H30.3497Z" fill="white"/>
</svg>
