<svg width="30" height="30" viewBox="0 0 30 30" fill="none" xmlns="http://www.w3.org/2000/svg">
<rect width="30" height="30" rx="4" fill="#FF4655"/>
<path d="M25 14.9021V7.12599C25 7.00605 24.8501 6.95608 24.7701 7.04603L16.2744 17.6607C16.2044 17.7407 16.2644 17.8706 16.3743 17.8706H22.5112C22.6812 17.8706 22.8311 17.7907 22.931 17.6607L24.8701 15.2419C24.95 15.152 25 15.032 25 14.9021ZM5.12993 15.2519L11.5067 23.2279C11.6067 23.3579 11.7666 23.4278 11.9365 23.4278H18.0735C18.1834 23.4278 18.2434 23.3079 18.1734 23.2279L5.22988 7.05603C5.14992 6.96607 5 7.01605 5 7.13599V14.9121C5.01 15.032 5.04997 15.152 5.12993 15.2519Z" fill="black"/>
</svg>
