<svg width="123" height="18" viewBox="0 0 123 18" fill="none" xmlns="http://www.w3.org/2000/svg">
<path d="M109.725 3.48639H114.128L114.142 17.2492C114.142 17.4262 114.283 17.5718 114.459 17.5718L116.98 17.5699C117.156 17.5699 117.297 17.4262 117.297 17.2473L117.282 3.48639H122.805C122.967 3.48639 123.06 3.29323 122.956 3.16382L121.066 0.749803C120.908 0.547128 120.668 0.430091 120.415 0.429138H109.725C109.549 0.429138 109.408 0.57282 109.408 0.751705V3.16573C109.408 3.34081 109.549 3.48639 109.725 3.48639ZM3.43371 17.2512L16.3526 0.751705C16.4544 0.622298 16.3629 0.429138 16.2004 0.429138H12.9702C12.7172 0.429138 12.4764 0.548078 12.3186 0.749803L3.15363 12.4536V0.749803C3.15363 0.570915 3.01266 0.427236 2.83808 0.427236H0.315549C0.14097 0.427236 0 0.570915 0 0.749803V17.2492C0 17.4281 0.14097 17.5718 0.315549 17.5718H2.783C3.036 17.5718 3.275 17.4538 3.43371 17.2512ZM12.5417 17.2512L16.9856 11.5763L21.4294 17.2512C21.5872 17.4538 21.828 17.5718 22.082 17.5718H24.5485C24.724 17.5718 24.865 17.4281 24.865 17.2492V0.749803C24.865 0.57282 24.724 0.427236 24.5485 0.427236H22.4797C21.9727 0.427236 21.4929 0.662261 21.1755 1.06666L8.50678 17.2473C8.40502 17.3768 8.49651 17.5699 8.65896 17.5699H11.8891C12.144 17.5718 12.383 17.4538 12.5417 17.2512ZM21.7095 5.19628V12.798L18.7332 8.99762L21.7095 5.19628ZM93.8407 17.2473L80.9227 0.7479C80.765 0.546176 80.525 0.428188 80.272 0.427236H77.8027C77.6281 0.427236 77.4872 0.570915 77.4872 0.749803V17.2492C77.4872 17.4281 77.6281 17.5718 77.8027 17.5718H80.2702C80.5232 17.5718 80.764 17.4538 80.9209 17.2512L85.3647 11.5763L89.8076 17.2512C89.9663 17.4538 90.2053 17.5718 90.4593 17.5718H93.6894C93.8519 17.5718 93.9424 17.3787 93.8407 17.2473ZM83.6142 8.99762L80.6371 12.7999V5.19628L83.6142 8.99762ZM48.0644 0C43.1949 0 39.2477 4.02876 39.2477 8.99953C39.2477 13.9703 43.1949 18 48.0644 18C52.9349 18 56.8821 13.9703 56.8821 8.99953C56.884 4.02876 52.9349 0 48.0644 0ZM48.0644 14.9408C44.936 14.9408 42.4013 12.2804 42.4013 8.99953C42.4013 5.71867 44.936 3.0563 48.0644 3.0563C51.1938 3.0563 53.7285 5.71676 53.7285 8.99953C53.7303 12.2804 51.1938 14.9408 48.0644 14.9408ZM104.064 0.749803V12.4536L94.8994 0.7479C94.7406 0.546176 94.5016 0.428188 94.2477 0.427236H91.7775C91.6038 0.427236 91.4619 0.570915 91.4619 0.749803V8.70075C91.4619 8.8939 91.5254 9.08136 91.6449 9.23265L94.2692 12.5849C94.385 12.7324 94.6174 12.6486 94.6174 12.4612V5.54168L103.784 17.2512C103.942 17.4538 104.182 17.5718 104.435 17.5718H106.902C107.077 17.5718 107.218 17.4281 107.218 17.2492V0.749803C107.218 0.57282 107.077 0.427236 106.902 0.427236H104.38C104.205 0.427236 104.064 0.57282 104.064 0.749803ZM73.2468 4.32563V0.749803C73.2468 0.570915 73.1059 0.427236 72.9313 0.427236H60.0217C59.8472 0.427236 59.7062 0.570915 59.7062 0.749803V17.2492C59.7062 17.4281 59.8472 17.5718 60.0217 17.5718H62.5443C62.7188 17.5718 62.8598 17.4281 62.8598 17.2492V3.48829H70.0932L65.2106 9.72649C65.12 9.84258 65.12 10.01 65.2106 10.129L70.7887 17.2531C70.9474 17.4557 71.1864 17.5737 71.4404 17.5737H74.6705C74.833 17.5737 74.9235 17.3806 74.8218 17.2512L69.0887 9.93012L73.0629 4.86134C73.1805 4.70624 73.2468 4.51879 73.2468 4.32563ZM28.9671 17.5718H36.4526C36.7056 17.5718 36.9464 17.4538 37.1033 17.2512L38.9938 14.8352C39.0955 14.7058 39.005 14.5127 38.8425 14.5127H31.8052V0.749803C31.8052 0.570915 31.6642 0.427236 31.4897 0.427236H28.9671C28.7925 0.427236 28.6516 0.570915 28.6516 0.749803V17.2492C28.6516 17.4262 28.7944 17.5718 28.9671 17.5718Z" fill="white"/>
</svg>
