<svg width="198" height="135" viewBox="0 0 198 135" fill="none" xmlns="http://www.w3.org/2000/svg">
<path d="M46.9537 1.8106C47.5601 1.44953 47.9465 2.17931 48.2737 2.5633C69.3229 28.8601 90.397 55.1377 111.444 81.4345C111.877 81.809 111.549 82.6094 110.966 82.5235C100.888 82.5349 90.8083 82.5273 80.7304 82.5273C79.9231 82.5368 79.1502 82.1356 78.6547 81.5071C68.198 68.4609 57.7471 55.409 47.2904 42.3609C46.8465 41.8337 46.617 41.1516 46.6457 40.4658C46.6457 27.8609 46.6495 15.2541 46.6418 2.64927C46.6476 2.35125 46.6361 1.96534 46.9537 1.8106Z" fill="#FF4655"/>
<path d="M144.305 1.74947C144.735 1.58708 145.21 1.98445 145.146 2.43531C145.162 15.0459 145.145 27.6565 145.154 40.2671C145.183 40.9816 145.026 41.721 144.561 42.2826C141.383 46.2524 138.202 50.2204 135.025 54.1883C134.495 54.876 133.628 55.2562 132.761 55.2123C122.75 55.2027 112.738 55.218 102.727 55.2046C102.135 55.2963 101.799 54.4997 102.235 54.1157C116.118 36.7711 130.012 19.4322 143.903 2.09143C144.008 1.94242 144.142 1.8278 144.305 1.74947Z" fill="#FF4655"/>
<path d="M75.089 104.214C78.1269 103.748 81.3159 104.285 84.0171 105.76C86.6361 107.175 88.7883 109.435 90.0681 112.123C91.4876 115.071 91.8185 118.517 91.017 121.689C90.2556 124.759 88.4133 127.544 85.8996 129.468C81.601 132.849 75.3013 133.348 70.5149 130.706C67.7601 129.229 65.5257 126.816 64.265 123.958C62.6771 120.409 62.6561 116.2 64.2037 112.631C66.069 108.207 70.3274 104.9 75.089 104.214ZM75.8561 108.99C72.8067 109.451 70.1246 111.613 68.929 114.439C67.6931 117.251 67.9361 120.661 69.5832 123.257C70.9338 125.445 73.2371 127.038 75.7853 127.447C78.3756 127.901 81.1342 127.101 83.1084 125.374C85.3601 123.45 86.5787 120.416 86.3243 117.471C86.133 114.842 84.7824 112.32 82.6761 110.725C80.7669 109.25 78.2417 108.599 75.8561 108.99Z" fill="#FF4655"/>
<path d="M0 104.866C1.18226 104.545 2.43148 104.805 3.64052 104.713C4.07096 104.772 4.72522 104.55 4.96817 105.036C5.05235 105.668 4.99878 106.308 5.00643 106.946C5.00643 112.507 5.00452 118.07 5.00643 123.632C9.88852 117.539 14.7649 111.443 19.6412 105.347C19.8957 105.03 20.2419 104.749 20.6685 104.741C22.0689 104.68 23.4711 104.749 24.8734 104.715C25.3976 104.724 25.9791 104.625 26.4268 104.973C24.795 107.12 23.0656 109.193 21.3936 111.309C16.3814 117.576 11.3673 123.84 6.35322 130.104C5.98017 130.559 5.65304 131.059 5.2073 131.453C4.76922 131.814 4.15896 131.701 3.63478 131.73C2.42383 131.688 1.20522 131.795 0 131.646V104.866Z" fill="#FF4655"/>
<path d="M33.8992 105.836C34.4196 105.131 35.2728 104.703 36.1509 104.722C37.2336 104.724 38.3183 104.703 39.4011 104.732C39.7742 104.692 39.9827 105.078 39.9349 105.406C39.9349 113.946 39.9349 122.487 39.9349 131.027C39.9846 131.355 39.7837 131.757 39.4011 131.715C38.0601 131.73 36.719 131.73 35.378 131.713C34.8863 131.726 34.498 131.38 34.2225 131.012C31.9039 128.104 29.5738 125.206 27.2552 122.298C24.8945 125.234 22.5472 128.18 20.1923 131.122C19.9397 131.445 19.5743 131.716 19.1458 131.711C17.6096 131.745 16.0716 131.703 14.5335 131.728C14.1566 131.703 13.6841 131.823 13.4507 131.432C20.2267 122.869 27.0945 114.376 33.8992 105.836ZM30.0789 118.223C31.6705 120.201 33.2392 122.195 34.8423 124.161C34.8538 120.197 34.85 116.234 34.8462 112.27C33.2526 114.251 31.6648 116.236 30.0789 118.223Z" fill="#FF4655"/>
<path d="M46.0086 105.401C45.9723 105.099 46.1368 104.728 46.4869 104.736C47.8356 104.703 49.19 104.717 50.5406 104.73C50.927 104.688 51.1681 105.07 51.1069 105.424C51.1145 112.58 51.1107 119.736 51.1088 126.895C54.8583 126.908 58.6079 126.885 62.3556 126.904C62.677 126.835 62.8778 127.242 62.6234 127.458C61.6477 128.713 60.6396 129.946 59.6467 131.191C59.3463 131.596 58.8375 131.76 58.3477 131.724C54.3954 131.711 50.4411 131.739 46.4888 131.711C46.1253 131.726 45.9742 131.332 46.0086 131.029C46.0086 122.487 46.0067 113.944 46.0086 105.401Z" fill="#FF4655"/>
<path d="M95.9716 105.41C95.8836 105.017 96.2011 104.659 96.6009 104.724C103.434 104.717 110.266 104.721 117.097 104.722C117.413 104.678 117.786 104.875 117.755 105.234C117.776 107.084 117.759 108.935 117.763 110.784C117.803 111.225 117.57 111.613 117.298 111.938C115.326 114.374 113.386 116.834 111.408 119.266C111.31 119.438 110.985 119.666 111.232 119.864C114.22 123.616 117.233 127.351 120.217 131.105C120.434 131.285 120.437 131.713 120.084 131.703C118.312 131.741 116.539 131.722 114.767 131.713C114.073 131.722 113.681 131.078 113.296 130.605C110.553 127.168 107.808 123.733 105.055 120.306C104.85 120.053 104.536 119.689 104.821 119.377C107.413 116.091 110.053 112.84 112.659 109.561C108.8 109.544 104.94 109.594 101.083 109.537C101.014 116.758 101.087 123.983 101.047 131.205C101.091 131.541 100.743 131.764 100.44 131.718C99.1013 131.718 97.7622 131.739 96.423 131.709C96.0672 131.713 95.9237 131.313 95.9696 131.017C95.9715 122.482 95.9696 113.946 95.9716 105.41Z" fill="#FF4655"/>
<path d="M124.57 105.424C124.508 105.08 124.732 104.686 125.119 104.73C126.395 104.707 127.675 104.72 128.952 104.724C129.431 104.696 129.894 104.919 130.175 105.307C136.551 113.273 142.925 121.242 149.301 129.208C149.851 129.944 150.509 130.605 150.985 131.394C150.939 131.468 150.847 131.617 150.801 131.692C149.256 131.77 147.704 131.692 146.156 131.726C145.546 131.736 144.808 131.787 144.404 131.229C142.009 128.262 139.637 125.276 137.253 122.3C134.892 125.234 132.543 128.18 130.19 131.12C129.938 131.447 129.568 131.715 129.14 131.713C127.805 131.732 126.469 131.726 125.136 131.716C124.738 131.772 124.507 131.371 124.57 131.021C124.57 122.489 124.572 113.955 124.57 105.424ZM129.66 112.284C129.655 116.246 129.655 120.206 129.66 124.168C131.252 122.189 132.836 120.204 134.422 118.221C132.832 116.244 131.26 114.252 129.66 112.284Z" fill="#FF4655"/>
<path d="M147.052 105.431C147.012 105.135 147.144 104.749 147.494 104.741C148.766 104.69 150.04 104.734 151.312 104.72C151.806 104.688 152.322 104.85 152.623 105.263C157.53 111.38 162.417 117.513 167.328 123.626C167.328 117.557 167.326 111.487 167.328 105.416C167.246 105.034 167.544 104.663 167.944 104.724C169.291 104.726 170.638 104.694 171.983 104.741C172.327 104.755 172.451 105.137 172.413 105.431C172.413 113.959 172.413 122.487 172.413 131.015C172.453 131.306 172.325 131.699 171.977 131.705C170.64 131.743 169.299 131.716 167.961 131.718C167.52 131.736 167.101 131.524 166.84 131.174C161.939 125.062 157.055 118.936 152.15 112.828C152.144 116.41 152.16 119.994 152.144 123.576C152.238 123.895 151.783 124.168 151.59 123.878C150.182 122.172 148.821 120.426 147.433 118.705C147.123 118.367 147.023 117.912 147.046 117.467C147.054 113.455 147.044 109.443 147.052 105.431Z" fill="#FF4655"/>
<path d="M175.931 105.232C175.891 104.885 176.262 104.684 176.566 104.724C182.183 104.715 187.8 104.724 193.416 104.721C193.902 104.69 194.411 104.848 194.708 105.257C195.702 106.495 196.707 107.729 197.684 108.983C197.943 109.193 197.749 109.609 197.424 109.552C194.488 109.575 191.549 109.552 188.611 109.561C188.597 116.714 188.628 123.867 188.626 131.019C188.695 131.361 188.46 131.755 188.077 131.715C186.736 131.726 185.393 131.732 184.054 131.713C183.769 131.737 183.52 131.485 183.549 131.204C183.501 123.991 183.547 116.775 183.509 109.561C181.192 109.556 178.873 109.569 176.559 109.558C176.251 109.594 175.883 109.382 175.931 109.034C175.912 107.768 175.91 106.499 175.931 105.232Z" fill="#FF4655"/>
</svg>
