<svg width="202" height="132" viewBox="0 0 202 132" fill="none" xmlns="http://www.w3.org/2000/svg">
<path d="M190.216 56.2378C186.8 55.3639 183.821 54.6489 183.821 51.8286C183.821 49.6042 185.489 48.2536 188.19 48.2536C190.891 48.2536 192.758 49.7233 193.394 52.2656L200.107 49.0481C198.359 44.5594 193.99 41.8981 188.389 41.8981C181.199 41.8981 176.154 46.3072 176.154 52.5833C176.154 60.2894 181.755 61.7194 186.681 62.9906C190.137 63.8644 193.116 64.6589 193.116 67.5586C193.116 69.9419 191.209 71.4911 188.23 71.4911C185.251 71.4911 182.828 69.8625 182.152 67.4792L175.439 70.6967C177.306 75.1058 182.073 77.8069 187.912 77.8069C195.737 77.8069 200.782 73.4375 200.782 66.6847C200.862 58.8992 194.943 57.4294 190.216 56.2378Z" fill="#C89B3C"/>
<path d="M191.806 26.4064H195.698V21.1233H199.671L200.664 17.6675H195.698V14.3308H201.339V10.7956H191.806V26.4064Z" fill="#C89B3C"/>
<path d="M181.994 26.8831C186.483 26.8831 190.177 23.2286 190.177 18.7797C190.177 14.2911 186.523 10.6764 181.994 10.6764C177.506 10.6764 173.812 14.3308 173.812 18.7797C173.851 23.2286 177.506 26.8831 181.994 26.8831ZM181.994 14.4103C184.417 14.4103 186.364 16.3567 186.364 18.7797C186.364 21.1631 184.417 23.1492 181.994 23.1492C179.571 23.1492 177.625 21.2028 177.625 18.7797C177.625 16.3567 179.611 14.4103 181.994 14.4103Z" fill="#C89B3C"/>
<path d="M109.024 42.0967L110.693 45.5525V76.8139H117.962V53.9736L134.288 76.8139H141.875V42.0967H134.606V65.2547L118.399 42.0967H109.024Z" fill="#C89B3C"/>
<path d="M163.96 43.5267C161.815 42.6528 158.717 42.0967 157.088 42.0967H145.251V76.8139H157.048C159.472 76.8139 161.775 76.3769 163.92 75.5031C166.065 74.6292 167.972 73.3978 169.601 71.8486C171.229 70.2994 172.5 68.4722 173.414 66.3669C174.328 64.2617 174.804 61.9975 174.804 59.5347C174.804 57.1117 174.328 54.8078 173.414 52.7025C172.5 50.5972 171.229 48.77 169.601 47.2208C168.012 45.6717 166.145 44.4403 163.96 43.5267ZM166.343 63.5864C165.827 64.8575 165.072 65.93 164.159 66.8436C163.245 67.7572 162.173 68.5119 160.902 69.0283C159.63 69.5844 158.28 69.8228 156.85 69.8228H152.719V49.1275H156.89C158.32 49.1275 159.67 49.4055 160.941 49.9617C162.212 50.5178 163.285 51.2328 164.198 52.1464C165.112 53.06 165.827 54.1722 166.383 55.4433C166.9 56.7144 167.178 58.065 167.178 59.495C167.178 60.9647 166.9 62.3153 166.343 63.5864Z" fill="#C89B3C"/>
<path d="M26.2832 42.0967V76.8139H46.9388V70.1008L33.8304 70.0214V62.4344H43.9596L45.7868 55.8803H33.8304V48.8494H46.9388V42.0967H26.2832Z" fill="#C89B3C"/>
<path d="M106.165 55.8803H94.1686V48.8494H107.317V42.0967H86.6611V76.8139H107.317V70.1008L94.1686 70.0214V62.4344H104.338L106.165 55.8803Z" fill="#C89B3C"/>
<path d="M123.126 33.1194C124.317 34.3906 125.787 35.3439 127.495 36.0192C129.203 36.6944 131.189 37.0519 133.374 37.0519C135.559 37.0519 137.545 36.7342 139.253 36.0589C141 35.3836 142.47 34.4303 143.662 33.1989C144.854 31.9675 145.807 30.4581 146.442 28.6706C147.118 26.8831 147.436 24.8969 147.436 22.7519L147.555 1.18278H139.968L139.849 22.315C139.849 24.6586 139.292 26.4858 138.18 27.8364C137.068 29.1869 135.479 29.8622 133.374 29.8225C131.269 29.8225 129.68 29.1472 128.607 27.7569C127.535 26.4064 126.979 24.5394 126.979 22.1958L127.098 1.10333H119.511L119.392 22.5533C119.392 24.7381 119.709 26.7242 120.345 28.5117C121.02 30.3389 121.934 31.8483 123.126 33.1194Z" fill="#C89B3C"/>
<path d="M86.6603 31.5703C88.2889 33.1989 90.1956 34.5097 92.3803 35.4631C94.6048 36.4164 96.9484 36.8931 99.5303 36.8931C102.033 36.8931 104.337 36.4958 106.442 35.622C108.547 34.7481 110.374 33.5564 111.924 32.047C113.473 30.5375 114.664 28.7103 115.538 26.605C116.174 25.0956 116.571 23.5067 116.77 21.8383C116.849 21.2028 116.929 18.3031 116.849 16.9922H99.6098L96.5511 23.2683H108.825C108.349 25.2544 107.276 26.8831 105.608 28.1144C103.939 29.3458 101.953 29.9417 99.6098 29.9417C98.1003 29.9417 96.71 29.6239 95.4389 29.0678C94.1281 28.472 93.0159 27.6775 92.0625 26.6845C91.1092 25.6914 90.3545 24.5395 89.7984 23.1889C89.2423 21.8383 89.0039 20.4083 89.0039 18.8989C89.0039 17.3895 89.282 15.9594 89.8381 14.6089C90.3942 13.2583 91.1489 12.1064 92.142 11.1133C93.0953 10.1203 94.2473 9.36556 95.5184 8.80945C96.7895 8.25334 98.1798 7.97528 99.6892 7.97528C101.715 7.97528 103.503 8.45195 105.052 9.32584C106.601 10.2395 107.832 11.5106 108.666 13.2186L115.459 10.0011C114.029 7.18084 111.963 4.99612 109.183 3.40723C106.402 1.81834 103.264 0.984177 99.7289 0.984177C97.2264 0.984177 94.8828 1.42112 92.6584 2.37445C90.4339 3.28807 88.4875 4.5989 86.8192 6.18778C85.1509 7.8164 83.84 9.72306 82.8867 11.8681C81.8937 14.0528 81.417 16.3567 81.417 18.8195C81.417 21.2822 81.8539 23.6258 82.8073 25.8106C83.7606 28.035 85.0317 29.9417 86.6603 31.5703Z" fill="#C89B3C"/>
<path d="M0.662109 1.18279L2.37017 4.75779V32.4442L0.662109 36.0192H21.8341L23.7407 29.2267H9.87767V1.18279H0.662109Z" fill="#C89B3C"/>
<path d="M0.662109 41.9775L2.37017 45.5922V73.2389L0.662109 76.8536H21.8341L23.7407 70.0214H9.87767V41.9775H0.662109Z" fill="#C89B3C"/>
<path d="M26.2832 1.26222V36.0192H46.9388V29.3061L33.8304 29.2267V21.6H43.9596L45.7868 15.0856H33.8304V8.05472H46.9388V1.26222H26.2832Z" fill="#C89B3C"/>
<path d="M150.852 1.26222V36.0192H171.507V29.3061L158.359 29.2267V21.6H168.528L170.355 15.0856H158.359V8.05472H171.507V1.26222H150.852Z" fill="#C89B3C"/>
<path d="M57.0277 36.0192L59.6494 29.2267H73.5522L76.2533 36.0192H84.0785L70.136 1.18279H59.4508L61.6752 5.71112L49.3613 36.0192H57.0277ZM66.7199 10.9147L71.0497 22.5931H62.1916L66.7199 10.9147Z" fill="#C89B3C"/>
<path d="M62.5891 70.0611C62.5096 70.0214 62.3905 69.9817 62.311 69.942C61.0002 69.3461 59.888 68.5517 58.9346 67.5586C57.9813 66.5656 57.2266 65.4136 56.6705 64.0631C56.1143 62.7125 55.876 61.2825 55.876 59.7731C55.876 58.2636 56.1541 56.8336 56.7102 55.4831C57.2663 54.1325 58.021 52.9806 59.0141 51.9875C59.9674 50.9944 61.1193 50.2397 62.3905 49.6836C63.6616 49.1275 65.0518 48.8495 66.5613 48.8495C68.5871 48.8495 70.3746 49.3261 71.9238 50.2C73.473 51.1136 74.7043 52.3847 75.5385 54.0928L82.331 50.8753C80.901 48.055 78.8355 45.8703 76.0549 44.2814C73.2743 42.6925 70.1363 41.8583 66.601 41.8583C64.0985 41.8583 61.7549 42.2953 59.5305 43.2486C57.306 44.1622 55.3596 45.4731 53.6913 47.062C52.023 48.6906 50.7121 50.5972 49.7588 52.7422C48.7657 54.9269 48.2891 57.2308 48.2891 59.6936C48.2891 62.1564 48.726 64.5 49.6793 66.6847C50.6327 68.8694 51.9038 70.7761 53.5324 72.4047C55.0816 73.9539 56.9088 75.225 58.9743 76.1386L62.5891 70.0611Z" fill="#C89B3C"/>
<path d="M83.7216 57.9061H66.4424L63.3838 64.1822H75.658C75.1813 66.1683 74.1088 67.7969 72.4405 69.0283C70.7722 70.2597 68.786 70.8556 66.4424 70.8556C65.4096 70.8556 64.4166 70.6967 63.4633 70.4186L61.7949 77.2508C63.2646 77.6083 64.7741 77.8069 66.363 77.8069C68.8655 77.8069 71.1694 77.4097 73.2747 76.5358C75.3799 75.6619 77.2071 74.4703 78.7563 72.9608C80.3055 71.4514 81.4972 69.6242 82.371 67.5189C83.0066 66.0095 83.4038 64.4206 83.6024 62.7522C83.6819 62.1167 83.801 59.2169 83.7216 57.9061Z" fill="#C89B3C"/>
<path d="M50.1165 96.5559C53.8504 88.1347 63.7015 68.1942 64.059 67.5189C64.3768 66.9231 64.3768 66.6053 63.9001 67.2806C61.5168 70.7364 57.5842 76.4167 54.049 81.5408C52.3012 84.0433 50.9506 85.1159 50.2356 85.5528C49.8781 85.7911 49.6001 86.1089 49.4412 86.4664C48.4481 88.81 39.4709 109.148 37.7231 113.835C36.9684 110.061 36.0548 104.262 36.0151 101.918C36.0151 101.362 36.1343 100.727 35.737 101.521C35.5384 101.958 34.9823 102.991 34.9823 102.991L34.1879 103.15C31.9634 105.613 28.6268 110.101 22.9465 117.013C22.9465 117.013 28.0309 102.395 28.7062 100.647C30.2951 96.7942 28.1104 100.051 30.017 95.1656C30.3348 94.4109 32.7579 87.1814 33.4331 85.1556C33.6715 84.4406 33.592 84.5995 32.9168 85.5131C31.884 86.9828 29.5006 90.3195 28.9048 90.9947C28.3884 91.5111 25.5681 98.9789 25.3695 99.535C25.1312 100.21 24.9723 100.21 25.0915 99.535C25.3695 98.2639 26.5215 93.1795 26.6804 92.5439C26.7995 92.0672 26.1242 92.7822 25.6873 94.1328C25.3695 95.1259 24.1779 98.7406 23.1848 102.196C22.3109 105.176 14.8431 131.233 14.6445 131.988C15.7965 130.995 17.862 127.738 18.9345 127.42C19.729 127.182 19.7687 126.228 20.8809 124.878C23.6615 121.382 25.4887 118.8 33.314 109.863C34.5056 116.179 36.0548 126.745 36.0548 126.745C36.0548 126.745 37.2067 125.275 37.8026 123.646C38.3587 122.058 38.8751 122.534 39.0737 121.899C40.7023 116.536 46.3826 104.977 50.1165 96.5559Z" fill="#32C8FF"/>
<path d="M87.3753 104.699C88.3684 103.388 90.1559 100.329 90.1559 97.668C90.1559 94.808 87.8123 92.5439 82.4498 92.5439C79.1131 92.5439 75.697 93.6958 70.97 95.4039C69.7387 95.8408 69.8975 95.9203 71.0098 95.7614C72.1617 95.6025 74.3067 95.2053 75.0217 95.0861C75.7764 94.9272 75.6175 95.8408 77.0873 95.4833C76.5311 96.4764 74.9423 99.6542 73.1548 103.666C70.7317 109.108 69.6195 112.365 69.4209 113.001C69.2223 113.875 71.6056 113.676 70.3345 114.391C68.7059 115.305 66.4814 116.536 64.0584 117.728C62.7475 118.363 61.3573 118.999 65.25 117.767C76.3723 114.232 82.5689 110.975 87.3753 104.699ZM76.1339 104.461C78.0009 99.9719 79.3514 97.5092 79.8281 96.2778C79.987 95.8011 79.55 95.7614 78.6761 95.245C79.3514 95.1655 80.702 95.0067 81.417 95.0067C84.1578 95.0067 86.5809 95.7217 86.5809 98.105C86.5809 102.514 79.7884 110.181 72.7178 113.12C72.6781 113.12 73.7506 110.181 76.1339 104.461Z" fill="#32C8FF"/>
<path d="M111.05 110.339L110.732 109.585C110.732 109.585 106.998 106.725 104.932 104.937C111.209 102.077 129.203 93.9739 128.17 85.9103C127.574 81.4217 120.583 80.0711 115.896 80.0711C103.86 80.0711 86.5013 84.52 82.0127 86.1486C81.8935 86.1883 81.8935 86.2281 82.0524 86.2281C92.1816 84.4803 121.139 81.1436 121.576 87.2608C121.894 91.948 106.323 100.766 102.033 102.872L101.675 102.554C103.344 97.9461 105.29 93.378 105.568 92.663C105.647 92.4644 105.568 92.385 105.409 92.2658C105.21 92.1467 104.615 91.7892 104.416 91.6303C104.217 91.5111 104.217 91.4317 104.337 91.1933C104.734 90.5578 105.33 89.7633 105.608 89.4058C105.846 89.0881 105.727 89.1278 105.449 89.1675C103.9 89.4455 99.9671 90.2797 94.406 92.5439C94.0088 92.7028 94.0485 92.7822 94.4855 92.663C96.1538 92.2658 101.794 90.7167 100.92 93.0205C100.642 93.7753 99.4905 96.675 97.7824 101.203C96.5907 101.203 96.551 101.759 95.9552 101.958C95.5182 102.117 93.413 101.68 94.2868 102.435C94.9224 102.991 95.2799 103.309 96.551 104.461C94.6443 109.505 91.7049 117.569 91.7049 117.569C91.4666 118.244 92.3405 118.284 93.0157 119.317C93.8102 120.469 94.2868 122.614 94.8032 121.223C95.4388 119.515 98.696 109.902 99.8877 107.122C99.8877 107.122 104.774 111.015 106.283 112.167C109.421 114.55 112.082 116.695 114.625 118.324C116.372 119.476 116.849 119.515 114.307 117.45C110.057 113.994 110.613 113.994 116.571 117.966C117.365 118.522 118.16 118.999 118.915 118.999C119.471 119.039 119.789 119.078 121.536 120.191C122.847 121.025 123.761 121.621 126.025 123.17C128.964 125.196 129.52 125.076 126.7 122.852C123.88 120.627 111.05 110.339 111.05 110.339Z" fill="#32C8FF"/>
<path d="M182.868 83.5269C171.269 82.8119 145.171 84.7981 135.638 87.1417C135.281 87.2211 135.281 87.4197 135.36 87.658C135.439 87.9758 136.552 88.4922 136.631 88.9292C136.79 89.8825 138.141 89.6442 137.823 90.4386C137.505 91.233 135.241 96.9133 135.241 96.9133C134.208 97.3106 132.54 98.0256 132.5 98.1447C132.381 98.4228 133.851 99.0583 133.89 100.131C132.778 102.872 131.189 107.638 130.951 108.274C130.752 108.87 131.666 109.068 131.944 109.664C132.222 110.3 132.659 111.452 132.818 111.69C133.136 112.167 133.255 111.809 133.453 111.372C133.692 110.737 134.446 108.592 134.804 107.559C135.519 105.533 137.545 99.535 137.545 99.535C140.564 98.3433 142.113 98.2242 142.153 97.9461C142.153 97.5092 143.026 97.0325 143.026 97.0325C143.026 97.0325 143.503 96.7147 143.503 96.5161C143.503 96.3175 144.298 96.1586 144.695 95.9203C145.092 95.6819 144.933 95.5231 144.615 95.4436C142.55 95.4039 140.603 95.6422 138.895 96.0394C139.491 94.4108 140.881 90.6769 141.477 89.4853C144.536 88.6908 147.873 88.095 152.163 87.4594C150.891 90.8358 148.031 98.82 147.674 99.7733C147.237 100.925 146.8 101.322 146.919 101.759C147.038 102.196 145.926 104.897 145.251 107.003C145.013 107.797 145.052 107.877 145.291 108.115C145.41 108.234 145.489 108.274 145.767 107.797C146.641 106.049 147.038 106.645 146.164 109.108C146.125 109.227 146.125 109.267 146.204 109.346C146.601 110.061 147.674 111.253 147.952 110.379C149.739 104.778 152.202 96.7544 155.777 86.9828C160.862 86.3472 162.292 86.2281 164.238 86.0294C165.072 85.95 165.35 85.0761 166.621 84.9569C172.143 84.4803 178.459 84.0036 182.868 83.6858C183.186 83.6064 183.344 83.5269 182.868 83.5269Z" fill="#32C8FF"/>
<path d="M53.5324 102.276C52.6585 102.594 52.8969 102.872 52.1422 103.626C51.8641 103.944 51.2285 103.785 51.0697 104.143C49.7191 107.321 46.5413 114.471 45.6674 117.569C45.5483 117.966 45.7866 118.324 46.0249 118.443C46.0249 118.443 46.5016 117.013 46.7399 117.211C47.1372 117.529 46.7399 119.277 47.0577 119.476C47.6138 119.793 48.0905 120.032 48.4083 119.317C48.8055 118.443 50.1561 114.59 51.8244 110.697C53.1749 107.479 55.0022 103.825 56.1541 102.157C56.9883 100.965 54.4063 101.998 53.5324 102.276Z" fill="#32C8FF"/>
<path d="M62.5887 105.771C64.0982 102.832 65.8459 99.6939 66.5609 98.4228C66.9582 97.7078 63.8996 98.8994 63.4229 99.1378C62.9065 99.3761 62.2312 99.6144 61.6751 100.687C61.0793 101.799 58.8946 106.208 57.2659 110.141C56.6304 111.73 54.9621 114.828 54.7635 115.344C54.7635 115.543 54.8032 116.02 55.0415 116.536C55.1209 116.695 56.0346 116.377 56.1537 116.576C56.2332 116.735 53.6512 118.125 53.0157 118.562C52.6979 118.8 52.7376 118.8 53.0157 118.681C54.2868 118.244 60.2451 116.457 63.5421 115.344C63.7407 115.106 64.2173 114.431 64.7337 113.517C64.2968 113.597 63.2243 113.795 62.8668 113.875C62.7079 113.914 62.5887 113.756 62.8668 113.597C63.3832 113.319 68.0307 110.975 66.124 111.531C64.2173 112.087 61.3971 112.882 58.4973 114.073C58.4576 114.113 60.6423 109.585 62.5887 105.771Z" fill="#32C8FF"/>
<path d="M128.25 95.0861C127.773 95.5628 127.336 96.7942 126.701 97.2708C126.343 97.5092 125.191 97.9461 125.032 98.3036C123.96 101.124 121.1 109.068 120.981 110.101C120.941 110.538 121.14 110.657 121.457 110.776C122.172 111.094 122.53 110.3 123.126 110.578C123.443 110.737 123.086 111.571 123.245 111.849C123.483 112.286 123.721 111.968 124 111.094C124.715 108.751 126.661 102.911 127.614 100.528C128.528 98.2639 129.283 96.4367 129.918 94.8875C130.117 94.3711 128.726 94.6094 128.25 95.0861Z" fill="#32C8FF"/>
<path d="M188.628 83.5667H187.913V83.1695H189.82V83.5667H189.105V85.235H188.668V83.5667H188.628ZM190.296 83.1297H190.773L191.488 84.242L192.203 83.1297H192.68V85.1953H192.243V83.805L191.528 84.9172H191.488L190.773 83.805V85.1953H190.336V83.1297H190.296Z" fill="#32C8FF"/>
</svg>
