<svg width="30" height="30" viewBox="0 0 30 30" fill="none" xmlns="http://www.w3.org/2000/svg">
<rect width="30" height="30" rx="4" fill="url(#paint0_linear_43_222)"/>
<path d="M16.7167 19.6904L17.9915 22.9029H20.0822L21 19.6904H16.7167Z" fill="white"/>
<path d="M14.5751 16.7329C13.8102 14.8462 12.8924 12.3477 13.1474 12.1437C13.2493 12.0417 13.7593 12.5006 14.5241 13.8264C14.6261 13.9794 14.5751 13.7754 14.5751 13.6734C14.5751 12.6536 14.5751 6.48369 14.5751 6.48369C14.5751 6.48369 11.8216 6.48369 11.5666 6.48369C11.4137 6.48369 11.3627 6.48369 11.3627 6.53468C11.3117 6.58567 11.3627 6.63666 11.3627 6.73865C12.3315 9.64514 12.7394 11.2769 12.5355 11.4298C12.4335 11.5318 11.9236 10.7669 11.1077 9.03325C9.88393 6.38171 9.11906 4.90297 9.01708 5.00495C8.86411 5.10693 9.73096 7.80946 11.9236 13.8774C12.6375 15.8661 12.8924 16.8859 12.7394 16.9879C12.5865 17.0898 12.1785 16.427 11.5666 15.2032C10.8528 13.7754 10.5468 13.2145 10.4448 13.2145C10.3429 13.2655 10.5978 14.1834 11.0567 15.5091C11.7196 17.5998 12.8414 21.2201 12.6375 21.3731C12.5355 21.4241 12.1785 20.8632 11.4647 19.2825C11.3117 18.9255 11.2097 18.7726 11.2097 18.7726C11.2097 18.7726 11.1587 18.8235 11.1587 18.9255C11.1587 19.1295 11.1587 21.2711 11.1587 21.2711L10.3429 22.9538H14.1162C13.1474 20.1493 12.8414 18.8745 12.9944 18.8235C13.1984 18.7216 14.0142 20.3533 15.034 22.9538C16.0029 23.4128 17.2267 24.5855 17.9405 25.2484C18.0935 25.4014 18.1445 25.4014 18.0935 25.2484C17.2267 23.2088 16.1049 20.5063 14.5751 16.7329Z" fill="white"/>
<defs>
<linearGradient id="paint0_linear_43_222" x1="15" y1="0" x2="15" y2="30" gradientUnits="userSpaceOnUse">
<stop stop-color="#4AC5F2"/>
<stop offset="1" stop-color="#2B728C"/>
</linearGradient>
</defs>
</svg>
